<svg xmlns="http://www.w3.org/2000/svg" xmlns:xlink="http://www.w3.org/1999/xlink" width="401" zoomAndPan="magnify" viewBox="0 0 300.75 292.499991" height="390" preserveAspectRatio="xMidYMid meet" version="1.0"><defs><clipPath id="fec0d8b058"><path d="M 2 0 L 298 0 L 298 291.554688 L 2 291.554688 Z M 2 0 " clip-rule="nonzero"/></clipPath><clipPath id="4ed0f31d46"><path d="M 200.574219 8.777344 L 200.664062 8.8125 C 216.71875 14.597656 231.65625 23.105469 244.828125 33.960938 C 257.996094 44.8125 269.140625 57.898438 277.757812 72.625 L 278.042969 73.113281 C 286.585938 87.710938 292.464844 103.710938 295.40625 120.363281 C 298.351562 137.023438 298.363281 154.070312 295.445312 170.734375 L 295.402344 170.992188 C 292.464844 187.773438 286.515625 203.886719 277.84375 218.550781 C 269.167969 233.222656 258.003906 246.273438 244.847656 257.117188 L 244.828125 257.132812 C 231.65625 267.988281 216.71875 276.492188 200.664062 282.28125 L 200.574219 282.3125 C 184.460938 288.121094 167.460938 291.09375 150.332031 291.09375 L 149.65625 291.09375 C 132.527344 291.09375 115.527344 288.121094 99.414062 282.3125 L 99.328125 282.28125 C 83.269531 276.492188 68.332031 267.988281 55.160156 257.132812 L 55.140625 257.117188 C 41.984375 246.273438 30.820312 233.222656 22.144531 218.550781 C 13.472656 203.886719 7.523438 187.773438 4.585938 170.992188 L 4.542969 170.734375 C 1.625 154.070312 1.636719 137.023438 4.582031 120.363281 C 7.523438 103.710938 13.402344 87.710938 21.945312 73.113281 L 22.230469 72.625 C 30.847656 57.898438 41.992188 44.8125 55.160156 33.960938 C 68.332031 23.105469 83.269531 14.597656 99.328125 8.8125 L 99.414062 8.777344 C 115.527344 2.96875 132.527344 0 149.65625 0 L 150.332031 0 C 167.460938 0 184.460938 2.96875 200.574219 8.777344 Z M 200.574219 8.777344 " clip-rule="nonzero"/></clipPath><clipPath id="4c753e03be"><path d="M 0 0 L 296 0 L 296 291.101562 L 0 291.101562 Z M 0 0 " clip-rule="nonzero"/></clipPath><clipPath id="d5f2303e16"><path d="M 198.574219 8.777344 L 198.664062 8.8125 C 214.71875 14.597656 229.65625 23.105469 242.828125 33.960938 C 255.996094 44.8125 267.140625 57.898438 275.757812 72.625 L 276.042969 73.113281 C 284.585938 87.710938 290.464844 103.710938 293.40625 120.363281 C 296.351562 137.023438 296.363281 154.070312 293.445312 170.734375 L 293.402344 170.992188 C 290.464844 187.773438 284.515625 203.886719 275.84375 218.550781 C 267.167969 233.222656 256.003906 246.273438 242.847656 257.117188 L 242.828125 257.132812 C 229.65625 267.988281 214.71875 276.492188 198.664062 282.28125 L 198.574219 282.3125 C 182.460938 288.121094 165.460938 291.09375 148.332031 291.09375 L 147.65625 291.09375 C 130.527344 291.09375 113.527344 288.121094 97.414062 282.3125 L 97.328125 282.28125 C 81.269531 276.492188 66.332031 267.988281 53.160156 257.132812 L 53.140625 257.117188 C 39.984375 246.273438 28.820312 233.222656 20.144531 218.550781 C 11.472656 203.886719 5.523438 187.773438 2.585938 170.992188 L 2.542969 170.734375 C -0.375 154.070312 -0.363281 137.023438 2.582031 120.363281 C 5.523438 103.710938 11.402344 87.710938 19.945312 73.113281 L 20.230469 72.625 C 28.847656 57.898438 39.992188 44.8125 53.160156 33.960938 C 66.332031 23.105469 81.269531 14.597656 97.328125 8.8125 L 97.414062 8.777344 C 113.527344 2.96875 130.527344 0 147.65625 0 L 148.332031 0 C 165.460938 0 182.460938 2.96875 198.574219 8.777344 Z M 198.574219 8.777344 " clip-rule="nonzero"/></clipPath><clipPath id="e3e25a4914"><rect x="0" width="296" y="0" height="292"/></clipPath><clipPath id="f138584ab4"><path d="M 32.449219 65.058594 L 266.535156 65.058594 L 266.535156 226.425781 L 32.449219 226.425781 Z M 32.449219 65.058594 " clip-rule="nonzero"/></clipPath><clipPath id="13ce70f6f6"><path d="M 6.550781 121.304688 L 6.550781 170.289062 C 6.550781 211.640625 40.074219 245.160156 81.425781 245.160156 L 218.5625 245.160156 C 259.914062 245.160156 293.4375 211.640625 293.4375 170.289062 L 293.4375 121.304688 C 293.4375 79.957031 259.914062 46.433594 218.5625 46.433594 L 81.425781 46.433594 C 40.074219 46.433594 6.550781 79.957031 6.550781 121.304688 Z M 6.550781 121.304688 " clip-rule="nonzero"/></clipPath><clipPath id="849f4cd013"><path d="M 10.039062 120.148438 L 289.6875 120.148438 L 289.6875 171.945312 L 10.039062 171.945312 Z M 10.039062 120.148438 " clip-rule="nonzero"/></clipPath><clipPath id="1d1b6adf96"><path d="M 6.550781 121.304688 L 6.550781 170.289062 C 6.550781 211.640625 40.074219 245.160156 81.425781 245.160156 L 218.5625 245.160156 C 259.914062 245.160156 293.4375 211.640625 293.4375 170.289062 L 293.4375 121.304688 C 293.4375 79.957031 259.914062 46.433594 218.5625 46.433594 L 81.425781 46.433594 C 40.074219 46.433594 6.550781 79.957031 6.550781 121.304688 Z M 6.550781 121.304688 " clip-rule="nonzero"/></clipPath><clipPath id="d6199b6ec1"><path d="M 41 103 L 108 103 L 108 182 L 41 182 Z M 41 103 " clip-rule="nonzero"/></clipPath><clipPath id="cb9b0496d7"><path d="M 6.550781 121.304688 L 6.550781 170.289062 C 6.550781 211.640625 40.074219 245.160156 81.425781 245.160156 L 218.5625 245.160156 C 259.914062 245.160156 293.4375 211.640625 293.4375 170.289062 L 293.4375 121.304688 C 293.4375 79.957031 259.914062 46.433594 218.5625 46.433594 L 81.425781 46.433594 C 40.074219 46.433594 6.550781 79.957031 6.550781 121.304688 Z M 6.550781 121.304688 " clip-rule="nonzero"/></clipPath><clipPath id="4ee65050a2"><path d="M 93 128 L 144 128 L 144 179 L 93 179 Z M 93 128 " clip-rule="nonzero"/></clipPath><clipPath id="3b0a861965"><path d="M 6.550781 121.304688 L 6.550781 170.289062 C 6.550781 211.640625 40.074219 245.160156 81.425781 245.160156 L 218.5625 245.160156 C 259.914062 245.160156 293.4375 211.640625 293.4375 170.289062 L 293.4375 121.304688 C 293.4375 79.957031 259.914062 46.433594 218.5625 46.433594 L 81.425781 46.433594 C 40.074219 46.433594 6.550781 79.957031 6.550781 121.304688 Z M 6.550781 121.304688 " clip-rule="nonzero"/></clipPath><clipPath id="9a0281384d"><path d="M 135 129 L 186 129 L 186 181 L 135 181 Z M 135 129 " clip-rule="nonzero"/></clipPath><clipPath id="ba1007be41"><path d="M 6.550781 121.304688 L 6.550781 170.289062 C 6.550781 211.640625 40.074219 245.160156 81.425781 245.160156 L 218.5625 245.160156 C 259.914062 245.160156 293.4375 211.640625 293.4375 170.289062 L 293.4375 121.304688 C 293.4375 79.957031 259.914062 46.433594 218.5625 46.433594 L 81.425781 46.433594 C 40.074219 46.433594 6.550781 79.957031 6.550781 121.304688 Z M 6.550781 121.304688 " clip-rule="nonzero"/></clipPath><clipPath id="e4ce6743bc"><path d="M 173 129 L 223 129 L 223 181 L 173 181 Z M 173 129 " clip-rule="nonzero"/></clipPath><clipPath id="9c5cde3f79"><path d="M 6.550781 121.304688 L 6.550781 170.289062 C 6.550781 211.640625 40.074219 245.160156 81.425781 245.160156 L 218.5625 245.160156 C 259.914062 245.160156 293.4375 211.640625 293.4375 170.289062 L 293.4375 121.304688 C 293.4375 79.957031 259.914062 46.433594 218.5625 46.433594 L 81.425781 46.433594 C 40.074219 46.433594 6.550781 79.957031 6.550781 121.304688 Z M 6.550781 121.304688 " clip-rule="nonzero"/></clipPath><clipPath id="7c6cd98124"><path d="M 208 131 L 264 131 L 264 203 L 208 203 Z M 208 131 " clip-rule="nonzero"/></clipPath><clipPath id="13684fd971"><path d="M 6.550781 121.304688 L 6.550781 170.289062 C 6.550781 211.640625 40.074219 245.160156 81.425781 245.160156 L 218.5625 245.160156 C 259.914062 245.160156 293.4375 211.640625 293.4375 170.289062 L 293.4375 121.304688 C 293.4375 79.957031 259.914062 46.433594 218.5625 46.433594 L 81.425781 46.433594 C 40.074219 46.433594 6.550781 79.957031 6.550781 121.304688 Z M 6.550781 121.304688 " clip-rule="nonzero"/></clipPath></defs><g clip-path="url(#fec0d8b058)"><g clip-path="url(#4ed0f31d46)"><g transform="matrix(1, 0, 0, 1, 2, 0)"><g clip-path="url(#e3e25a4914)"><g clip-path="url(#4c753e03be)"><g clip-path="url(#d5f2303e16)"><path fill="#f3f4f6" d="M -1.867188 0 L 297.660156 0 L 297.660156 291.554688 L -1.867188 291.554688 Z M -1.867188 0 " fill-opacity="1" fill-rule="nonzero"/></g></g></g></g></g></g><g clip-path="url(#f138584ab4)"><g clip-path="url(#13ce70f6f6)"><path fill="#ef4444" d="M 135.480469 124.800781 C 140.503906 121.433594 145.566406 118.125 150.667969 114.886719 C 155.765625 111.640625 160.90625 108.457031 166.082031 105.328125 C 176.4375 99.082031 186.945312 93.085938 197.652344 87.460938 C 203.007812 84.652344 208.410156 81.929688 213.882812 79.347656 C 219.351562 76.765625 224.890625 74.316406 230.523438 72.097656 C 233.339844 70.988281 236.179688 69.9375 239.054688 68.976562 C 241.929688 68.015625 244.839844 67.144531 247.792969 66.441406 C 249.273438 66.089844 250.765625 65.78125 252.269531 65.542969 C 253.78125 65.289062 255.304688 65.136719 256.835938 65.078125 C 257.609375 65.050781 258.382812 65.066406 259.15625 65.125 C 259.941406 65.175781 260.714844 65.296875 261.476562 65.484375 C 262.265625 65.667969 263.007812 65.960938 263.710938 66.363281 C 264.078125 66.566406 264.414062 66.808594 264.722656 67.09375 C 265.03125 67.375 265.304688 67.691406 265.535156 68.039062 C 265.769531 68.386719 265.960938 68.753906 266.109375 69.144531 C 266.257812 69.539062 266.355469 69.941406 266.410156 70.355469 C 266.46875 70.757812 266.496094 71.164062 266.492188 71.574219 C 266.484375 71.972656 266.453125 72.371094 266.394531 72.765625 C 266.285156 73.546875 266.105469 74.3125 265.863281 75.066406 C 265.632812 75.804688 265.359375 76.53125 265.046875 77.238281 C 264.421875 78.644531 263.710938 80.007812 262.914062 81.320312 C 262.128906 82.636719 261.289062 83.917969 260.40625 85.15625 C 258.652344 87.644531 256.757812 90.03125 254.796875 92.347656 C 252.835938 94.667969 250.800781 96.921875 248.714844 99.125 C 244.546875 103.535156 240.203125 107.765625 235.761719 111.886719 C 231.316406 116.007812 226.769531 120.015625 222.148438 123.929688 C 212.910156 131.761719 203.382812 139.25 193.671875 146.484375 C 188.816406 150.097656 183.910156 153.648438 178.964844 157.132812 C 174.015625 160.617188 169.027344 164.046875 163.992188 167.414062 C 153.925781 174.140625 143.699219 180.621094 133.3125 186.855469 C 128.117188 189.964844 122.878906 193 117.59375 195.957031 C 112.308594 198.914062 106.976562 201.785156 101.59375 204.558594 C 96.210938 207.335938 90.769531 209.996094 85.269531 212.539062 C 79.765625 215.074219 74.195312 217.472656 68.527344 219.640625 C 65.695312 220.726562 62.832031 221.742188 59.941406 222.671875 C 57.046875 223.601562 54.121094 224.4375 51.148438 225.113281 C 49.660156 225.445312 48.164062 225.742188 46.644531 225.960938 C 45.121094 226.195312 43.59375 226.332031 42.054688 226.371094 C 41.28125 226.390625 40.503906 226.363281 39.734375 226.300781 C 38.949219 226.238281 38.175781 226.109375 37.410156 225.914062 C 37.023438 225.8125 36.644531 225.691406 36.273438 225.542969 C 35.890625 225.390625 35.527344 225.214844 35.179688 225.003906 C 34.816406 224.796875 34.480469 224.550781 34.175781 224.261719 C 33.871094 223.976562 33.601562 223.660156 33.371094 223.308594 C 33.140625 222.960938 32.949219 222.589844 32.808594 222.195312 C 32.664062 221.800781 32.566406 221.398438 32.515625 220.980469 C 32.414062 220.179688 32.429688 219.378906 32.558594 218.578125 C 32.679688 217.804688 32.863281 217.042969 33.113281 216.296875 C 33.355469 215.566406 33.636719 214.84375 33.953125 214.140625 C 34.59375 212.75 35.316406 211.398438 36.125 210.097656 C 36.921875 208.796875 37.777344 207.535156 38.667969 206.300781 C 40.441406 203.84375 42.367188 201.484375 44.347656 199.195312 C 46.332031 196.902344 48.390625 194.679688 50.492188 192.503906 C 54.695312 188.144531 59.070312 183.960938 63.546875 179.890625 C 68.023438 175.824219 72.605469 171.871094 77.246094 167.992188 C 86.527344 160.246094 96.085938 152.824219 105.8125 145.636719 C 110.675781 142.042969 115.582031 138.507812 120.535156 135.039062 C 125.488281 131.570312 130.46875 128.15625 135.480469 124.800781 Z M 135.480469 124.800781 C 130.457031 128.167969 125.472656 131.589844 120.527344 135.066406 C 115.585938 138.542969 110.6875 142.089844 105.84375 145.707031 C 96.152344 152.929688 86.636719 160.40625 77.414062 168.222656 C 72.800781 172.128906 68.277344 176.132812 63.839844 180.234375 C 59.410156 184.34375 55.078125 188.5625 50.933594 192.945312 C 48.855469 195.144531 46.84375 197.386719 44.886719 199.683594 C 42.9375 201.984375 41.0625 204.347656 39.332031 206.804688 C 38.464844 208.035156 37.636719 209.289062 36.875 210.574219 C 36.097656 211.847656 35.410156 213.167969 34.804688 214.53125 C 34.503906 215.210938 34.242188 215.898438 34.019531 216.605469 C 33.796875 217.296875 33.632812 218.007812 33.527344 218.730469 C 33.480469 219.085938 33.449219 219.441406 33.445312 219.796875 C 33.441406 220.148438 33.464844 220.496094 33.511719 220.84375 C 33.597656 221.53125 33.835938 222.160156 34.226562 222.734375 C 34.613281 223.304688 35.109375 223.757812 35.714844 224.09375 C 36.015625 224.265625 36.332031 224.414062 36.65625 224.542969 C 36.988281 224.667969 37.332031 224.773438 37.675781 224.859375 C 38.378906 225.027344 39.097656 225.136719 39.820312 225.1875 C 40.554688 225.242188 41.289062 225.253906 42.027344 225.230469 C 43.511719 225.171875 44.992188 225.023438 46.460938 224.777344 C 47.933594 224.542969 49.398438 224.234375 50.859375 223.890625 C 53.777344 223.199219 56.65625 222.332031 59.511719 221.382812 C 62.363281 220.429688 65.1875 219.382812 67.992188 218.28125 C 73.597656 216.074219 79.113281 213.632812 84.570312 211.058594 C 90.023438 208.480469 95.410156 205.765625 100.757812 202.960938 C 111.441406 197.347656 121.933594 191.359375 132.273438 185.128906 C 142.613281 178.894531 152.796875 172.394531 162.832031 165.683594 C 167.851562 162.328125 172.832031 158.914062 177.773438 155.441406 C 182.714844 151.96875 187.613281 148.445312 192.476562 144.863281 C 202.183594 137.6875 211.722656 130.277344 220.992188 122.546875 C 225.621094 118.675781 230.195312 114.734375 234.65625 110.675781 C 239.117188 106.613281 243.480469 102.449219 247.664062 98.113281 C 249.753906 95.945312 251.796875 93.734375 253.769531 91.460938 C 255.738281 89.1875 257.636719 86.855469 259.390625 84.425781 C 260.269531 83.207031 261.109375 81.96875 261.890625 80.695312 C 262.675781 79.429688 263.378906 78.121094 264 76.769531 C 264.304688 76.097656 264.570312 75.414062 264.800781 74.714844 C 265.03125 74.027344 265.203125 73.320312 265.316406 72.605469 C 265.371094 72.25 265.402344 71.898438 265.414062 71.542969 C 265.421875 71.191406 265.402344 70.84375 265.359375 70.496094 C 265.28125 69.808594 265.050781 69.175781 264.671875 68.601562 C 264.289062 68.023438 263.796875 67.5625 263.195312 67.21875 C 262.890625 67.042969 262.578125 66.886719 262.253906 66.757812 C 261.917969 66.625 261.578125 66.515625 261.230469 66.425781 C 260.523438 66.246094 259.808594 66.125 259.078125 66.070312 C 258.34375 66.007812 257.605469 65.984375 256.867188 66 C 255.371094 66.039062 253.882812 66.171875 252.40625 66.402344 C 250.925781 66.617188 249.449219 66.90625 247.984375 67.238281 C 245.050781 67.902344 242.152344 68.738281 239.285156 69.652344 C 236.414062 70.566406 233.566406 71.589844 230.75 72.664062 C 225.113281 74.824219 219.554688 77.214844 214.074219 79.742188 C 208.589844 82.265625 203.152344 84.929688 197.785156 87.703125 C 187.039062 93.242188 176.5 99.175781 166.121094 105.382812 C 160.933594 108.488281 155.789062 111.660156 150.679688 114.894531 C 145.578125 118.132812 140.507812 121.433594 135.480469 124.800781 Z M 135.480469 124.800781 " fill-opacity="1" fill-rule="nonzero"/></g></g><g clip-path="url(#849f4cd013)"><g clip-path="url(#1d1b6adf96)"><path fill="#ef4444" d="M 149.800781 120.414062 C 155.847656 120.414062 161.894531 120.484375 167.941406 120.617188 C 173.984375 120.75 180.027344 120.960938 186.066406 121.242188 C 198.144531 121.808594 210.214844 122.664062 222.246094 123.941406 C 228.253906 124.585938 234.257812 125.324219 240.246094 126.21875 C 246.234375 127.113281 252.191406 128.15625 258.109375 129.445312 C 261.066406 130.089844 264.011719 130.796875 266.9375 131.59375 C 269.859375 132.394531 272.761719 133.289062 275.613281 134.347656 C 277.035156 134.878906 278.445312 135.449219 279.832031 136.085938 C 281.230469 136.71875 282.578125 137.4375 283.882812 138.242188 C 284.542969 138.648438 285.175781 139.089844 285.785156 139.566406 C 286.40625 140.046875 286.980469 140.578125 287.511719 141.152344 C 288.0625 141.746094 288.519531 142.40625 288.878906 143.125 C 289.070312 143.5 289.214844 143.890625 289.3125 144.296875 C 289.410156 144.703125 289.460938 145.113281 289.460938 145.53125 C 289.464844 145.953125 289.417969 146.367188 289.324219 146.773438 C 289.230469 147.179688 289.089844 147.570312 288.902344 147.945312 C 288.726562 148.3125 288.523438 148.664062 288.292969 149 C 288.0625 149.332031 287.816406 149.644531 287.550781 149.941406 C 287.023438 150.527344 286.449219 151.066406 285.832031 151.554688 C 285.226562 152.042969 284.59375 152.492188 283.9375 152.910156 C 282.640625 153.730469 281.292969 154.464844 279.898438 155.117188 C 278.515625 155.773438 277.105469 156.363281 275.6875 156.914062 C 272.839844 158.003906 269.941406 158.933594 267.019531 159.769531 C 264.101562 160.605469 261.152344 161.351562 258.199219 162.023438 C 252.285156 163.371094 246.324219 164.472656 240.335938 165.425781 C 234.351562 166.382812 228.34375 167.1875 222.328125 167.871094 C 210.289062 169.242188 198.210938 170.171875 186.117188 170.785156 C 180.066406 171.089844 174.019531 171.316406 167.964844 171.46875 C 161.914062 171.621094 155.859375 171.695312 149.808594 171.691406 C 137.703125 171.6875 125.597656 171.386719 113.492188 170.792969 C 107.445312 170.492188 101.402344 170.101562 95.367188 169.621094 C 89.328125 169.140625 83.300781 168.558594 77.28125 167.878906 C 71.265625 167.195312 65.261719 166.382812 59.273438 165.4375 C 53.289062 164.480469 47.324219 163.378906 41.40625 162.03125 C 38.449219 161.359375 35.507812 160.617188 32.585938 159.78125 C 29.664062 158.945312 26.769531 158.015625 23.929688 156.921875 C 22.507812 156.378906 21.097656 155.785156 19.71875 155.128906 C 18.324219 154.476562 16.972656 153.742188 15.675781 152.921875 C 15.019531 152.503906 14.386719 152.050781 13.78125 151.566406 C 13.160156 151.074219 12.582031 150.535156 12.050781 149.945312 C 11.785156 149.648438 11.539062 149.335938 11.308594 149.003906 C 11.078125 148.667969 10.875 148.320312 10.699219 147.949219 C 10.511719 147.574219 10.371094 147.183594 10.277344 146.777344 C 10.183594 146.367188 10.136719 145.953125 10.136719 145.535156 C 10.140625 145.117188 10.191406 144.703125 10.289062 144.296875 C 10.390625 143.890625 10.53125 143.496094 10.722656 143.125 C 11.082031 142.402344 11.539062 141.746094 12.085938 141.152344 C 12.621094 140.574219 13.203125 140.042969 13.828125 139.5625 C 14.4375 139.085938 15.070312 138.644531 15.726562 138.238281 C 17.03125 137.433594 18.386719 136.714844 19.78125 136.082031 C 21.167969 135.445312 22.578125 134.875 24 134.34375 C 26.855469 133.285156 29.753906 132.394531 32.675781 131.589844 C 35.601562 130.789062 38.546875 130.089844 41.503906 129.441406 C 47.421875 128.152344 53.382812 127.109375 59.367188 126.214844 C 65.355469 125.320312 71.355469 124.582031 77.371094 123.9375 C 89.398438 122.660156 101.464844 121.804688 113.546875 121.238281 C 119.589844 120.957031 125.632812 120.75 131.675781 120.617188 C 137.71875 120.488281 143.761719 120.417969 149.800781 120.414062 Z M 149.800781 120.414062 C 143.757812 120.414062 137.710938 120.488281 131.667969 120.636719 C 125.625 120.785156 119.582031 121.011719 113.542969 121.320312 C 101.46875 121.933594 89.40625 122.859375 77.394531 124.230469 C 71.386719 124.914062 65.402344 125.726562 59.433594 126.667969 C 53.464844 127.625 47.523438 128.71875 41.636719 130.058594 C 38.695312 130.730469 35.769531 131.476562 32.867188 132.300781 C 29.96875 133.128906 27.097656 134.050781 24.292969 135.128906 C 22.890625 135.675781 21.503906 136.25 20.152344 136.894531 C 18.796875 137.523438 17.488281 138.238281 16.226562 139.039062 C 15.601562 139.4375 15 139.867188 14.425781 140.328125 C 13.851562 140.78125 13.324219 141.277344 12.835938 141.820312 C 12.59375 142.085938 12.375 142.367188 12.167969 142.660156 C 11.96875 142.949219 11.796875 143.253906 11.644531 143.570312 C 11.335938 144.1875 11.179688 144.84375 11.183594 145.535156 C 11.1875 146.226562 11.351562 146.878906 11.667969 147.492188 C 11.824219 147.808594 12 148.105469 12.203125 148.394531 C 12.410156 148.683594 12.632812 148.957031 12.871094 149.222656 C 13.363281 149.753906 13.898438 150.246094 14.472656 150.6875 C 15.050781 151.140625 15.65625 151.5625 16.28125 151.949219 C 17.546875 152.730469 18.859375 153.425781 20.214844 154.039062 C 21.570312 154.664062 22.960938 155.226562 24.367188 155.75 C 27.175781 156.792969 30.050781 157.675781 32.953125 158.472656 C 35.855469 159.269531 38.785156 159.972656 41.726562 160.609375 C 47.613281 161.894531 53.554688 162.929688 59.519531 163.824219 C 65.484375 164.710938 71.476562 165.449219 77.476562 166.09375 C 89.480469 167.367188 101.527344 168.222656 113.589844 168.789062 C 125.648438 169.359375 137.726562 169.617188 149.800781 169.609375 C 155.839844 169.609375 161.878906 169.542969 167.914062 169.40625 C 173.953125 169.273438 179.984375 169.066406 186.015625 168.785156 C 198.074219 168.222656 210.125 167.367188 222.125 166.09375 C 228.132812 165.449219 234.117188 164.714844 240.082031 163.824219 C 246.050781 162.925781 251.992188 161.890625 257.878906 160.609375 C 260.824219 159.964844 263.75 159.265625 266.65625 158.472656 C 269.558594 157.675781 272.429688 156.792969 275.242188 155.75 C 276.648438 155.226562 278.035156 154.664062 279.390625 154.039062 C 280.746094 153.425781 282.058594 152.726562 283.324219 151.945312 C 283.953125 151.558594 284.554688 151.140625 285.136719 150.6875 C 285.710938 150.242188 286.246094 149.753906 286.738281 149.21875 C 286.976562 148.953125 287.203125 148.679688 287.40625 148.390625 C 287.609375 148.105469 287.789062 147.804688 287.941406 147.492188 C 288.261719 146.878906 288.421875 146.222656 288.425781 145.53125 C 288.429688 144.839844 288.277344 144.183594 287.964844 143.5625 C 287.8125 143.246094 287.640625 142.945312 287.441406 142.652344 C 287.238281 142.359375 287.015625 142.078125 286.777344 141.8125 C 286.289062 141.269531 285.757812 140.769531 285.1875 140.316406 C 284.609375 139.855469 284.007812 139.425781 283.382812 139.027344 C 282.121094 138.230469 280.8125 137.515625 279.457031 136.882812 C 278.105469 136.242188 276.71875 135.65625 275.316406 135.121094 C 272.507812 134.039062 269.636719 133.121094 266.742188 132.289062 C 263.84375 131.460938 260.914062 130.722656 257.972656 130.050781 C 252.085938 128.710938 246.140625 127.613281 240.175781 126.660156 C 234.207031 125.710938 228.21875 124.90625 222.210938 124.222656 C 210.195312 122.859375 198.136719 121.929688 186.0625 121.316406 C 180.027344 121.011719 173.984375 120.785156 167.941406 120.632812 C 161.894531 120.480469 155.847656 120.40625 149.800781 120.414062 Z M 149.800781 120.414062 " fill-opacity="1" fill-rule="nonzero"/></g></g><g clip-path="url(#d6199b6ec1)"><g clip-path="url(#cb9b0496d7)"><path fill="#ef4444" d="M 100.214844 156.238281 L 100.214844 156.355469 C 99.34375 162.308594 97.757812 167.046875 95.460938 170.574219 C 93.160156 174.105469 89.988281 176.699219 85.941406 178.363281 C 81.898438 180.03125 76.824219 181.058594 70.71875 181.453125 C 67.628906 181.453125 64.671875 181.136719 61.855469 180.496094 C 59.042969 179.863281 56.566406 179.132812 54.425781 178.300781 C 52.285156 177.472656 50.582031 176.738281 49.3125 176.101562 C 48.046875 175.464844 47.414062 175.152344 47.414062 175.152344 L 47.648438 174.433594 C 45.746094 173.722656 44.242188 173.074219 43.132812 172.480469 C 42.023438 171.886719 41.46875 171.585938 41.46875 171.585938 L 47.296875 157.191406 C 49.433594 158.539062 51.867188 159.75 54.605469 160.824219 C 57.34375 161.894531 59.980469 162.425781 62.519531 162.425781 C 65.371094 162.265625 67.75 161.234375 69.652344 159.335938 C 71.558594 157.433594 72.746094 154.578125 73.21875 150.769531 C 73.773438 144.507812 74.328125 138.542969 74.882812 132.871094 C 75.4375 127.203125 75.933594 122.144531 76.371094 117.703125 C 76.804688 113.265625 77.160156 109.773438 77.4375 107.238281 C 77.714844 104.699219 77.855469 103.429688 77.855469 103.429688 L 79.046875 103.429688 C 82.539062 103.429688 86.007812 103.648438 89.453125 104.085938 C 92.902344 104.519531 95.773438 104.976562 98.074219 105.453125 C 100.378906 105.933594 101.53125 106.171875 101.53125 106.171875 L 101.046875 108.550781 C 102.949219 108.867188 104.496094 109.148438 105.683594 109.382812 C 106.878906 109.617188 107.476562 109.734375 107.476562 109.734375 C 106.835938 113.304688 106.160156 117.289062 105.445312 121.6875 C 104.730469 126.089844 104.019531 130.609375 103.304688 135.253906 C 102.589844 139.890625 101.921875 144.347656 101.289062 148.628906 Z M 93.078125 152.550781 C 93.792969 147.640625 94.550781 142.503906 95.34375 137.152344 C 96.136719 131.796875 96.925781 126.523438 97.714844 121.328125 C 98.511719 116.136719 99.304688 111.398438 100.097656 107.121094 C 96.6875 106.328125 93.199219 105.710938 89.628906 105.277344 C 86.066406 104.839844 82.5 104.621094 78.929688 104.621094 C 78.929688 104.621094 78.808594 105.8125 78.574219 108.195312 C 78.332031 110.570312 77.996094 113.878906 77.5625 118.125 C 77.125 122.363281 76.628906 127.28125 76.074219 132.871094 C 75.519531 138.457031 74.964844 144.464844 74.410156 150.886719 C 74.015625 155.328125 72.765625 158.519531 70.664062 160.464844 C 68.566406 162.40625 65.886719 163.457031 62.636719 163.617188 L 62.160156 163.617188 C 59.9375 163.617188 57.71875 163.21875 55.5 162.425781 C 53.277344 161.632812 51.453125 160.839844 50.027344 160.046875 C 48.601562 159.25 47.886719 158.855469 47.886719 158.855469 L 42.890625 171.105469 C 42.890625 171.105469 43.722656 171.5625 45.390625 172.472656 C 47.054688 173.386719 49.390625 174.316406 52.402344 175.265625 C 55.414062 176.21875 58.863281 176.699219 62.75 176.699219 C 69.019531 176.699219 74.210938 176.007812 78.332031 174.621094 C 82.457031 173.230469 85.703125 170.792969 88.082031 167.304688 C 90.464844 163.816406 92.128906 158.898438 93.078125 152.550781 Z M 93.078125 152.550781 " fill-opacity="1" fill-rule="nonzero"/></g></g><g clip-path="url(#4ee65050a2)"><g clip-path="url(#3b0a861965)"><path fill="#ef4444" d="M 124.003906 178.957031 C 120.832031 178.957031 117.820312 178.558594 114.96875 177.765625 C 112.113281 176.972656 109.417969 175.582031 106.882812 173.601562 C 102.441406 171.78125 99.128906 169.007812 96.945312 165.28125 C 94.765625 161.554688 93.675781 157.585938 93.675781 153.382812 C 93.675781 149.5 94.6875 145.734375 96.710938 142.085938 C 98.734375 138.4375 101.609375 135.34375 105.332031 132.808594 C 109.058594 130.273438 113.539062 128.804688 118.773438 128.410156 C 121.703125 128.488281 124.339844 128.964844 126.679688 129.835938 C 129.019531 130.707031 130.984375 131.898438 132.570312 133.40625 C 135.816406 134.597656 138.371094 136.417969 140.234375 138.878906 C 142.101562 141.332031 143.039062 143.949219 143.039062 146.722656 C 143.039062 149.421875 142.28125 152 140.773438 154.457031 C 139.265625 156.917969 136.96875 158.859375 133.878906 160.285156 L 134.234375 161.828125 C 135.578125 161.511719 136.726562 161.21875 137.675781 160.941406 C 138.628906 160.660156 139.105469 160.519531 139.105469 160.519531 C 139.105469 160.519531 139.242188 161.117188 139.519531 162.308594 C 139.800781 163.5 140.097656 164.925781 140.414062 166.589844 C 140.734375 168.253906 141.015625 169.921875 141.246094 171.585938 C 141.484375 173.246094 141.566406 174.554688 141.488281 175.507812 C 141.488281 175.507812 140.734375 175.785156 139.222656 176.339844 C 137.71875 176.894531 135.636719 177.46875 132.984375 178.0625 C 130.324219 178.65625 127.332031 178.957031 124.003906 178.957031 Z M 117.941406 141.253906 C 118.175781 141.175781 118.414062 141.136719 118.648438 141.136719 C 118.886719 141.136719 119.085938 141.136719 119.246094 141.136719 C 121.304688 141.136719 122.554688 141.691406 122.992188 142.800781 C 123.425781 143.910156 123.03125 145.023438 121.800781 146.132812 C 120.574219 147.242188 118.535156 147.796875 115.683594 147.796875 C 114.171875 147.796875 112.664062 147.640625 111.160156 147.320312 C 111.792969 145.734375 112.703125 144.386719 113.894531 143.273438 C 115.085938 142.167969 116.433594 141.492188 117.941406 141.253906 Z M 116.15625 174.199219 L 118.171875 174.199219 C 121.425781 174.199219 124.261719 173.945312 126.679688 173.429688 C 129.09375 172.914062 130.980469 172.417969 132.328125 171.945312 C 133.675781 171.46875 134.351562 171.226562 134.351562 171.226562 C 134.429688 170.433594 134.371094 169.34375 134.171875 167.960938 C 133.976562 166.570312 133.738281 165.140625 133.457031 163.671875 C 133.179688 162.207031 132.925781 160.976562 132.6875 159.984375 C 132.449219 158.992188 132.328125 158.496094 132.328125 158.496094 C 132.328125 158.496094 131.753906 158.636719 130.601562 158.917969 C 129.453125 159.195312 128.007812 159.492188 126.257812 159.8125 C 124.515625 160.128906 122.652344 160.285156 120.671875 160.285156 C 119.164062 160.285156 117.601562 160.152344 115.972656 159.875 C 114.347656 159.59375 113.0625 158.820312 112.113281 157.546875 C 112.984375 157.625 113.792969 157.6875 114.546875 157.726562 C 115.304688 157.769531 116.039062 157.789062 116.75 157.789062 C 121.824219 157.789062 125.867188 156.835938 128.882812 154.933594 C 131.894531 153.03125 133.9375 150.671875 135.007812 147.859375 C 136.074219 145.042969 136.210938 142.246094 135.417969 139.46875 C 134.628906 136.695312 132.925781 134.355469 130.304688 132.457031 C 127.691406 130.554688 124.242188 129.601562 119.964844 129.601562 L 118.773438 129.601562 C 113.777344 129.757812 109.554688 130.929688 106.105469 133.113281 C 102.652344 135.289062 99.996094 138.046875 98.136719 141.375 C 96.269531 144.707031 95.21875 148.21875 94.984375 151.90625 C 94.742188 155.589844 95.359375 159.097656 96.828125 162.425781 C 98.292969 165.757812 100.636719 168.496094 103.847656 170.636719 C 107.058594 172.773438 111.160156 173.964844 116.15625 174.199219 Z M 116.15625 174.199219 " fill-opacity="1" fill-rule="nonzero"/></g></g><g clip-path="url(#9a0281384d)"><g clip-path="url(#ba1007be41)"><path fill="#ef4444" d="M 136.730469 135.664062 L 156.234375 130.785156 L 156.589844 135.191406 C 160.160156 131.382812 164.519531 129.476562 169.671875 129.476562 C 171.019531 129.476562 172.488281 129.679688 174.078125 130.078125 C 175.664062 130.472656 177.367188 131.105469 179.191406 131.976562 L 178.597656 133.40625 C 180.578125 133.726562 182.757812 134.4375 185.136719 135.546875 L 177.40625 155.648438 C 174.554688 153.902344 172.371094 153.027344 170.863281 153.027344 C 169.511719 153.027344 168.363281 153.503906 167.414062 154.457031 C 166.464844 155.40625 165.550781 156.675781 164.675781 158.261719 L 166.941406 176.699219 C 164.085938 178.125 160.894531 179.074219 157.363281 179.546875 C 153.832031 180.023438 150.800781 180.261719 148.265625 180.261719 C 146.679688 180.261719 145.214844 180.203125 143.867188 180.085938 C 142.515625 179.964844 141.84375 179.90625 141.84375 179.90625 L 141.84375 176.699219 C 140.339844 176.699219 138.972656 176.640625 137.742188 176.519531 C 136.511719 176.398438 135.898438 176.339844 135.898438 176.339844 Z M 155.050781 132.332031 L 137.921875 136.613281 L 137.089844 175.265625 C 137.089844 175.265625 137.582031 175.304688 138.574219 175.382812 C 139.566406 175.464844 140.8125 175.507812 142.320312 175.507812 C 144.855469 175.507812 147.769531 175.308594 151.058594 174.917969 C 154.351562 174.519531 157.230469 173.683594 159.6875 172.410156 L 157.546875 154.457031 C 158.496094 152.554688 159.585938 151.046875 160.816406 149.9375 C 162.046875 148.828125 163.410156 148.269531 164.917969 148.269531 C 166.660156 148.269531 168.640625 148.984375 170.863281 150.410156 L 177.765625 132.574219 C 175.144531 131.304688 172.445312 130.667969 169.671875 130.667969 C 163.886719 130.667969 159.210938 133.167969 155.640625 138.164062 Z M 155.050781 132.332031 " fill-opacity="1" fill-rule="nonzero"/></g></g><g clip-path="url(#e4ce6743bc)"><g clip-path="url(#9c5cde3f79)"><path fill="#ef4444" d="M 174.195312 135.664062 L 193.695312 130.785156 L 194.054688 135.191406 C 197.625 131.382812 201.984375 129.476562 207.136719 129.476562 C 208.484375 129.476562 209.953125 129.679688 211.542969 130.078125 C 213.128906 130.472656 214.832031 131.105469 216.652344 131.976562 L 216.0625 133.40625 C 218.042969 133.726562 220.222656 134.4375 222.601562 135.546875 L 214.871094 155.648438 C 212.019531 153.902344 209.835938 153.027344 208.328125 153.027344 C 206.976562 153.027344 205.828125 153.503906 204.878906 154.457031 C 203.929688 155.40625 203.015625 156.675781 202.140625 158.261719 L 204.40625 176.699219 C 201.550781 178.125 198.359375 179.074219 194.824219 179.546875 C 191.296875 180.023438 188.265625 180.261719 185.726562 180.261719 C 184.144531 180.261719 182.679688 180.203125 181.332031 180.085938 C 179.980469 179.964844 179.308594 179.90625 179.308594 179.90625 L 179.308594 176.699219 C 177.800781 176.699219 176.4375 176.640625 175.207031 176.519531 C 173.976562 176.398438 173.363281 176.339844 173.363281 176.339844 Z M 192.515625 132.332031 L 175.386719 136.613281 L 174.554688 175.265625 C 174.554688 175.265625 175.046875 175.304688 176.039062 175.382812 C 177.03125 175.464844 178.277344 175.507812 179.78125 175.507812 C 182.320312 175.507812 185.230469 175.308594 188.523438 174.917969 C 191.816406 174.519531 194.691406 173.683594 197.152344 172.410156 L 195.011719 154.457031 C 195.960938 152.554688 197.050781 151.046875 198.28125 149.9375 C 199.511719 148.828125 200.875 148.269531 202.382812 148.269531 C 204.125 148.269531 206.105469 148.984375 208.328125 150.410156 L 215.230469 132.574219 C 212.609375 131.304688 209.910156 130.667969 207.136719 130.667969 C 201.351562 130.667969 196.671875 133.167969 193.105469 138.164062 Z M 192.515625 132.332031 " fill-opacity="1" fill-rule="nonzero"/></g></g><g clip-path="url(#7c6cd98124)"><g clip-path="url(#13684fd971)"><path fill="#ef4444" d="M 217.011719 194.652344 L 210.464844 191.921875 C 214.667969 186.210938 217.621094 181.554688 219.332031 177.945312 C 221.035156 174.339844 222.046875 172.058594 222.367188 171.105469 C 219.90625 167.457031 217.804688 163.492188 216.0625 159.214844 C 214.320312 154.933594 212.890625 150.851562 211.78125 146.964844 C 210.671875 143.078125 209.859375 139.910156 209.347656 137.453125 C 208.828125 134.996094 208.566406 133.765625 208.566406 133.765625 L 229.617188 132.332031 C 229.617188 132.96875 229.617188 133.640625 229.617188 134.355469 C 229.617188 135.070312 229.65625 135.742188 229.734375 136.378906 L 235.5625 135.90625 C 235.5625 137.332031 235.621094 138.78125 235.742188 140.25 C 235.863281 141.710938 236 143.117188 236.164062 144.464844 C 236.875 141.136719 237.386719 138.144531 237.703125 135.484375 C 238.019531 132.828125 238.179688 131.5 238.179688 131.5 L 257.570312 132.933594 C 257.410156 133.488281 257.269531 134.023438 257.152344 134.535156 C 257.03125 135.050781 256.894531 135.546875 256.738281 136.023438 L 263.515625 136.496094 C 261.691406 143.398438 259.945312 149.464844 258.28125 154.699219 C 256.613281 159.929688 254.910156 164.605469 253.167969 168.730469 C 251.421875 172.851562 249.578125 176.691406 247.632812 180.261719 C 245.691406 183.832031 243.574219 187.398438 241.277344 190.964844 C 238.976562 194.53125 236.398438 198.417969 233.539062 202.621094 L 216.421875 195.484375 C 216.496094 195.25 216.695312 194.972656 217.011719 194.652344 Z M 223.789062 170.871094 C 223.789062 170.871094 223.035156 172.773438 221.523438 176.574219 C 220.019531 180.382812 216.96875 185.339844 212.375 191.445312 L 227.121094 197.625 C 229.816406 193.582031 232.296875 189.835938 234.550781 186.386719 C 236.8125 182.9375 238.875 179.488281 240.738281 176.039062 C 242.601562 172.59375 244.367188 168.890625 246.03125 164.925781 C 247.695312 160.960938 249.339844 156.464844 250.964844 151.429688 C 252.59375 146.394531 254.28125 140.582031 256.023438 134 L 239.253906 132.808594 C 239.253906 132.808594 239.132812 133.703125 238.894531 135.484375 C 238.65625 137.273438 238.28125 139.472656 237.765625 142.09375 C 237.253906 144.707031 236.617188 147.382812 235.859375 150.117188 C 235.105469 152.851562 234.214844 155.171875 233.183594 157.074219 C 233.183594 157.074219 232.785156 156.023438 231.992188 153.921875 C 231.203125 151.820312 230.414062 148.988281 229.617188 145.421875 C 228.824219 141.855469 228.425781 137.925781 228.425781 133.640625 L 209.992188 134.832031 C 209.992188 134.832031 210.25 136.023438 210.761719 138.402344 C 211.28125 140.78125 212.09375 143.832031 213.207031 147.5625 C 214.316406 151.289062 215.742188 155.234375 217.484375 159.390625 C 219.230469 163.554688 221.332031 167.378906 223.789062 170.871094 Z M 223.789062 170.871094 " fill-opacity="1" fill-rule="nonzero"/></g></g></svg>