<svg xmlns="http://www.w3.org/2000/svg" xmlns:xlink="http://www.w3.org/1999/xlink" width="804" zoomAndPan="magnify" viewBox="0 0 603 417.74999" height="557" preserveAspectRatio="xMidYMid meet" version="1.0"><defs><clipPath id="4b1b8e2b53"><path d="M 54.546875 39.089844 L 545.925781 39.089844 L 545.925781 377.828125 L 54.546875 377.828125 Z M 54.546875 39.089844 " clip-rule="nonzero"/></clipPath><clipPath id="a984c447f5"><path d="M 7.5 155 L 594.527344 155 L 594.527344 263 L 7.5 263 Z M 7.5 155 " clip-rule="nonzero"/></clipPath></defs><g clip-path="url(#4b1b8e2b53)"><path fill="#000000" d="M 270.824219 164.496094 C 281.371094 157.425781 291.996094 150.488281 302.703125 143.683594 C 313.410156 136.875 324.195312 130.1875 335.0625 123.625 C 356.796875 110.515625 378.859375 97.929688 401.332031 86.117188 C 412.578125 80.226562 423.914062 74.503906 435.398438 69.082031 C 446.882812 63.664062 458.507812 58.523438 470.332031 53.863281 C 476.246094 51.535156 482.210938 49.332031 488.246094 47.316406 C 494.28125 45.292969 500.386719 43.472656 506.585938 41.996094 C 509.691406 41.253906 512.824219 40.605469 515.984375 40.105469 C 519.15625 39.578125 522.355469 39.253906 525.570312 39.132812 C 527.195312 39.074219 528.820312 39.109375 530.441406 39.226562 C 532.085938 39.339844 533.707031 39.59375 535.3125 39.980469 C 536.960938 40.375 538.527344 40.984375 540 41.828125 C 540.769531 42.257812 541.476562 42.765625 542.125 43.363281 C 542.769531 43.957031 543.34375 44.617188 543.832031 45.34375 C 544.320312 46.074219 544.726562 46.847656 545.035156 47.671875 C 545.347656 48.492188 545.554688 49.339844 545.667969 50.207031 C 545.792969 51.058594 545.84375 51.90625 545.835938 52.765625 C 545.820312 53.605469 545.753906 54.4375 545.636719 55.273438 C 545.398438 56.910156 545.027344 58.519531 544.523438 60.09375 C 544.03125 61.648438 543.460938 63.171875 542.804688 64.660156 C 541.492188 67.613281 540 70.46875 538.328125 73.230469 C 536.679688 75.988281 534.914062 78.675781 533.066406 81.277344 C 529.378906 86.503906 525.40625 91.507812 521.289062 96.375 C 517.167969 101.246094 512.898438 105.976562 508.523438 110.605469 C 499.773438 119.855469 490.652344 128.742188 481.328125 137.390625 C 472 146.039062 462.457031 154.453125 452.757812 162.671875 C 433.359375 179.109375 413.359375 194.828125 392.980469 210.015625 C 382.78125 217.601562 372.488281 225.054688 362.101562 232.367188 C 351.714844 239.6875 341.242188 246.882812 330.675781 253.949219 C 309.546875 268.074219 288.074219 281.675781 266.273438 294.761719 C 255.367188 301.292969 244.371094 307.660156 233.277344 313.871094 C 222.183594 320.078125 210.988281 326.097656 199.691406 331.925781 C 188.390625 337.753906 176.96875 343.335938 165.417969 348.675781 C 153.867188 353.996094 142.171875 359.03125 130.277344 363.578125 C 124.332031 365.859375 118.328125 367.996094 112.253906 369.945312 C 106.183594 371.898438 100.039062 373.65625 93.800781 375.066406 C 90.675781 375.769531 87.53125 376.386719 84.339844 376.851562 C 81.148438 377.34375 77.9375 377.632812 74.707031 377.714844 C 73.082031 377.75 71.457031 377.699219 69.835938 377.5625 C 68.1875 377.429688 66.566406 377.160156 64.960938 376.75 C 64.148438 376.542969 63.347656 376.28125 62.570312 375.976562 C 61.773438 375.65625 61.007812 375.28125 60.273438 374.84375 C 59.515625 374.40625 58.8125 373.886719 58.167969 373.289062 C 57.527344 372.6875 56.960938 372.015625 56.480469 371.285156 C 55.996094 370.550781 55.597656 369.773438 55.296875 368.945312 C 54.992188 368.121094 54.789062 367.273438 54.6875 366.398438 C 54.476562 364.714844 54.503906 363.03125 54.773438 361.355469 C 55.027344 359.730469 55.414062 358.132812 55.9375 356.566406 C 56.445312 355.027344 57.035156 353.515625 57.707031 352.039062 C 59.046875 349.113281 60.5625 346.285156 62.261719 343.550781 C 63.933594 340.820312 65.730469 338.171875 67.597656 335.585938 C 71.324219 330.425781 75.359375 325.46875 79.523438 320.660156 C 83.6875 315.851562 88.007812 311.183594 92.417969 306.617188 C 101.242188 297.46875 110.429688 288.6875 119.828125 280.144531 C 129.222656 271.601562 138.839844 263.308594 148.582031 255.164062 C 168.066406 238.902344 188.128906 223.320312 208.550781 208.234375 C 218.753906 200.691406 229.054688 193.277344 239.453125 185.996094 C 249.847656 178.710938 260.304688 171.546875 270.824219 164.496094 Z M 270.824219 164.496094 C 260.28125 171.566406 249.816406 178.75 239.4375 186.046875 C 229.058594 193.34375 218.78125 200.789062 208.609375 208.382812 C 188.265625 223.546875 168.292969 239.238281 148.9375 255.644531 C 139.253906 263.847656 129.753906 272.25 120.4375 280.863281 C 111.140625 289.484375 102.050781 298.34375 93.347656 307.546875 C 88.988281 312.160156 84.757812 316.871094 80.652344 321.691406 C 76.566406 326.523438 72.628906 331.480469 68.988281 336.636719 C 67.175781 339.21875 65.4375 341.847656 63.832031 344.546875 C 62.207031 347.226562 60.761719 349.996094 59.484375 352.859375 C 58.855469 354.28125 58.308594 355.730469 57.84375 357.207031 C 57.375 358.667969 57.03125 360.152344 56.8125 361.671875 C 56.710938 362.414062 56.648438 363.164062 56.636719 363.910156 C 56.628906 364.648438 56.675781 365.382812 56.777344 366.113281 C 56.957031 367.550781 57.457031 368.871094 58.273438 370.074219 C 59.085938 371.273438 60.128906 372.226562 61.398438 372.929688 C 62.035156 373.296875 62.695312 373.605469 63.378906 373.871094 C 64.078125 374.136719 64.792969 374.355469 65.515625 374.535156 C 66.996094 374.890625 68.5 375.121094 70.019531 375.226562 C 71.5625 375.335938 73.101562 375.371094 74.648438 375.3125 C 77.769531 375.195312 80.875 374.878906 83.957031 374.371094 C 87.050781 373.875 90.128906 373.222656 93.191406 372.507812 C 99.3125 371.050781 105.359375 369.234375 111.351562 367.238281 C 117.339844 365.242188 123.269531 363.042969 129.152344 360.730469 C 140.917969 356.09375 152.5 350.96875 163.953125 345.566406 C 175.398438 340.160156 186.710938 334.453125 197.933594 328.574219 C 220.363281 316.785156 242.386719 304.214844 264.089844 291.136719 C 285.792969 278.054688 307.171875 264.410156 328.238281 250.316406 C 338.777344 243.269531 349.234375 236.109375 359.601562 228.824219 C 369.976562 221.53125 380.261719 214.132812 390.464844 206.609375 C 410.847656 191.550781 430.871094 175.996094 450.332031 159.765625 C 460.046875 151.640625 469.644531 143.371094 479.011719 134.847656 C 488.375 126.324219 497.535156 117.582031 506.3125 108.480469 C 510.699219 103.929688 514.992188 99.285156 519.128906 94.515625 C 523.265625 89.746094 527.246094 84.84375 530.933594 79.742188 C 532.773438 77.191406 534.539062 74.585938 536.179688 71.914062 C 537.828125 69.257812 539.304688 66.515625 540.605469 63.671875 C 541.242188 62.269531 541.804688 60.832031 542.289062 59.359375 C 542.773438 57.914062 543.132812 56.4375 543.371094 54.929688 C 543.484375 54.191406 543.550781 53.445312 543.574219 52.699219 C 543.589844 51.96875 543.554688 51.238281 543.460938 50.507812 C 543.296875 49.0625 542.816406 47.738281 542.015625 46.523438 C 541.214844 45.3125 540.179688 44.347656 538.917969 43.628906 C 538.28125 43.253906 537.621094 42.929688 536.9375 42.65625 C 536.234375 42.378906 535.523438 42.148438 534.792969 41.960938 C 533.3125 41.585938 531.804688 41.332031 530.277344 41.210938 C 528.730469 41.082031 527.183594 41.03125 525.628906 41.066406 C 522.492188 41.148438 519.375 41.429688 516.273438 41.910156 C 513.164062 42.363281 510.066406 42.972656 506.992188 43.664062 C 500.832031 45.058594 494.746094 46.816406 488.722656 48.734375 C 482.699219 50.648438 476.726562 52.796875 470.8125 55.058594 C 458.976562 59.59375 447.3125 64.613281 435.804688 69.914062 C 424.296875 75.214844 412.875 80.800781 401.613281 86.625 C 379.058594 98.25 356.929688 110.710938 335.148438 123.734375 C 324.253906 130.257812 313.453125 136.914062 302.734375 143.707031 C 292.015625 150.5 281.378906 157.429688 270.824219 164.496094 Z M 270.824219 164.496094 " fill-opacity="1" fill-rule="nonzero"/></g><g clip-path="url(#a984c447f5)"><path fill="#000000" d="M 300.886719 155.292969 C 313.578125 155.292969 326.273438 155.433594 338.960938 155.714844 C 351.652344 155.996094 364.335938 156.433594 377.011719 157.027344 C 402.367188 158.214844 427.703125 160.015625 452.957031 162.695312 C 465.566406 164.050781 478.175781 165.59375 490.742188 167.472656 C 503.3125 169.355469 515.820312 171.542969 528.242188 174.246094 C 534.449219 175.601562 540.632812 177.082031 546.773438 178.761719 C 552.910156 180.4375 559 182.320312 564.984375 184.535156 C 567.972656 185.652344 570.933594 186.851562 573.839844 188.191406 C 576.773438 189.519531 579.605469 191.027344 582.347656 192.714844 C 583.726562 193.570312 585.058594 194.496094 586.335938 195.496094 C 587.640625 196.507812 588.847656 197.617188 589.964844 198.824219 C 591.121094 200.070312 592.074219 201.453125 592.832031 202.96875 C 593.230469 203.75 593.535156 204.566406 593.742188 205.421875 C 593.945312 206.273438 594.050781 207.140625 594.054688 208.019531 C 594.058594 208.902344 593.960938 209.765625 593.765625 210.621094 C 593.566406 211.476562 593.273438 212.300781 592.878906 213.082031 C 592.511719 213.855469 592.082031 214.59375 591.597656 215.300781 C 591.121094 215.992188 590.601562 216.648438 590.042969 217.277344 C 588.933594 218.507812 587.730469 219.636719 586.433594 220.664062 C 585.160156 221.683594 583.839844 222.632812 582.460938 223.503906 C 579.734375 225.230469 576.902344 226.773438 573.980469 228.140625 C 571.074219 229.515625 568.117188 230.753906 565.136719 231.90625 C 559.164062 234.195312 553.078125 236.148438 546.949219 237.90625 C 540.816406 239.660156 534.625 241.222656 528.429688 242.632812 C 516.011719 245.460938 503.5 247.777344 490.933594 249.777344 C 478.367188 251.78125 465.757812 253.472656 453.128906 254.90625 C 427.859375 257.789062 402.503906 259.738281 377.117188 261.027344 C 364.421875 261.664062 351.722656 262.144531 339.015625 262.460938 C 326.308594 262.785156 313.605469 262.941406 300.898438 262.929688 C 275.488281 262.917969 250.078125 262.289062 224.667969 261.042969 C 211.976562 260.410156 199.292969 259.589844 186.617188 258.582031 C 173.941406 257.574219 161.289062 256.355469 148.65625 254.925781 C 136.023438 253.492188 123.421875 251.78125 110.851562 249.800781 C 98.292969 247.796875 85.769531 245.480469 73.351562 242.65625 C 67.144531 241.242188 60.964844 239.683594 54.832031 237.929688 C 48.695312 236.171875 42.625 234.222656 36.660156 231.929688 C 33.675781 230.78125 30.71875 229.542969 27.820312 228.164062 C 24.890625 226.796875 22.0625 225.253906 19.332031 223.527344 C 17.957031 222.652344 16.628906 221.703125 15.359375 220.6875 C 14.050781 219.652344 12.84375 218.523438 11.730469 217.285156 C 11.167969 216.65625 10.652344 216 10.167969 215.308594 C 9.6875 214.601562 9.257812 213.867188 8.890625 213.089844 C 8.5 212.308594 8.199219 211.480469 8.003906 210.628906 C 7.804688 209.769531 7.707031 208.902344 7.710938 208.023438 C 7.714844 207.144531 7.820312 206.277344 8.027344 205.421875 C 8.238281 204.566406 8.539062 203.746094 8.9375 202.96875 C 9.695312 201.449219 10.652344 200.066406 11.800781 198.820312 C 12.925781 197.609375 14.140625 196.5 15.453125 195.488281 C 16.734375 194.488281 18.0625 193.5625 19.441406 192.703125 C 22.183594 191.019531 25.023438 189.511719 27.953125 188.183594 C 30.863281 186.84375 33.824219 185.644531 36.8125 184.527344 C 42.800781 182.3125 48.886719 180.4375 55.023438 178.753906 C 61.160156 177.070312 67.347656 175.601562 73.554688 174.238281 C 85.972656 171.539062 98.488281 169.347656 111.054688 167.46875 C 123.621094 165.589844 136.214844 164.042969 148.84375 162.6875 C 174.09375 160.007812 199.421875 158.210938 224.78125 157.023438 C 237.464844 156.425781 250.148438 155.992188 262.835938 155.714844 C 275.527344 155.441406 288.210938 155.300781 300.886719 155.292969 Z M 300.886719 155.292969 C 288.199219 155.292969 275.503906 155.445312 262.820312 155.761719 C 250.132812 156.070312 237.453125 156.550781 224.773438 157.195312 C 199.425781 158.480469 174.109375 160.425781 148.894531 163.304688 C 136.285156 164.738281 123.71875 166.441406 111.1875 168.421875 C 98.664062 170.425781 86.1875 172.722656 73.832031 175.539062 C 67.652344 176.945312 61.515625 178.511719 55.421875 180.238281 C 49.339844 181.984375 43.3125 183.914062 37.421875 186.183594 C 34.476562 187.324219 31.570312 188.535156 28.730469 189.882812 C 25.886719 191.210938 23.144531 192.707031 20.488281 194.386719 C 19.183594 195.21875 17.921875 196.121094 16.707031 197.089844 C 15.507812 198.042969 14.394531 199.085938 13.371094 200.226562 C 12.867188 200.785156 12.402344 201.375 11.972656 201.992188 C 11.558594 202.601562 11.191406 203.238281 10.871094 203.898438 C 10.222656 205.195312 9.898438 206.574219 9.90625 208.023438 C 9.914062 209.476562 10.253906 210.84375 10.921875 212.136719 C 11.246094 212.792969 11.617188 213.421875 12.042969 214.023438 C 12.476562 214.632812 12.945312 215.210938 13.449219 215.761719 C 14.480469 216.882812 15.601562 217.910156 16.808594 218.839844 C 18.027344 219.792969 19.292969 220.675781 20.601562 221.492188 C 23.265625 223.125 26.019531 224.585938 28.863281 225.878906 C 31.710938 227.1875 34.628906 228.371094 37.574219 229.464844 C 43.476562 231.65625 49.511719 233.511719 55.601562 235.179688 C 61.691406 236.851562 67.84375 238.332031 74.015625 239.667969 C 86.375 242.359375 98.851562 244.542969 111.371094 246.410156 C 123.894531 248.277344 136.472656 249.832031 149.066406 251.179688 C 174.265625 253.851562 199.550781 255.648438 224.867188 256.839844 C 250.183594 258.03125 275.539062 258.578125 300.886719 258.558594 C 313.558594 258.558594 326.234375 258.417969 338.910156 258.136719 C 351.582031 257.851562 364.246094 257.417969 376.90625 256.832031 C 402.222656 255.644531 427.511719 253.847656 452.707031 251.179688 C 465.320312 249.824219 477.875 248.285156 490.402344 246.410156 C 502.925781 244.535156 515.398438 242.355469 527.761719 239.667969 C 533.941406 238.316406 540.082031 236.847656 546.179688 235.179688 C 552.273438 233.511719 558.304688 231.652344 564.207031 229.464844 C 567.15625 228.363281 570.066406 227.183594 572.914062 225.875 C 575.761719 224.585938 578.515625 223.121094 581.175781 221.484375 C 582.492188 220.671875 583.757812 219.789062 584.976562 218.835938 C 586.183594 217.902344 587.304688 216.878906 588.339844 215.753906 C 588.839844 215.203125 589.3125 214.621094 589.742188 214.015625 C 590.167969 213.417969 590.542969 212.789062 590.867188 212.132812 C 591.535156 210.839844 591.875 209.46875 591.882812 208.015625 C 591.890625 206.5625 591.570312 205.183594 590.914062 203.886719 C 590.597656 203.21875 590.230469 202.582031 589.8125 201.976562 C 589.382812 201.359375 588.921875 200.769531 588.421875 200.210938 C 587.394531 199.066406 586.28125 198.023438 585.078125 197.070312 C 583.867188 196.101562 582.605469 195.199219 581.296875 194.367188 C 578.644531 192.691406 575.898438 191.1875 573.050781 189.863281 C 570.214844 188.515625 567.304688 187.285156 564.363281 186.160156 C 558.46875 183.894531 552.441406 181.964844 546.359375 180.21875 C 540.277344 178.476562 534.132812 176.929688 527.953125 175.523438 C 515.59375 172.710938 503.121094 170.402344 490.59375 168.40625 C 478.070312 166.40625 465.492188 164.722656 452.886719 163.289062 C 427.664062 160.421875 402.351562 158.472656 377.007812 157.183594 C 364.332031 156.550781 351.652344 156.070312 338.960938 155.75 C 326.273438 155.425781 313.578125 155.273438 300.886719 155.292969 Z M 300.886719 155.292969 " fill-opacity="1" fill-rule="nonzero"/></g><path fill="#000000" d="M 196.792969 230.496094 L 196.792969 230.742188 C 194.964844 243.234375 191.636719 253.183594 186.8125 260.585938 C 181.988281 267.992188 175.328125 273.441406 166.835938 276.9375 C 158.347656 280.433594 147.699219 282.59375 134.882812 283.421875 C 128.390625 283.421875 122.191406 282.753906 116.277344 281.414062 C 110.371094 280.082031 105.171875 278.546875 100.675781 276.808594 C 96.1875 275.0625 92.609375 273.523438 89.941406 272.183594 C 87.285156 270.851562 85.957031 270.191406 85.957031 270.191406 L 86.445312 268.6875 C 82.460938 267.199219 79.304688 265.828125 76.972656 264.589844 C 74.644531 263.339844 73.476562 262.710938 73.476562 262.710938 L 85.710938 232.488281 C 90.195312 235.324219 95.308594 237.863281 101.050781 240.117188 C 106.800781 242.363281 112.339844 243.480469 117.664062 243.480469 C 123.652344 243.148438 128.644531 240.984375 132.644531 236.996094 C 136.636719 233.003906 139.132812 227.007812 140.125 219.011719 C 141.289062 205.871094 142.453125 193.34375 143.621094 181.4375 C 144.785156 169.539062 145.828125 158.925781 146.742188 149.601562 C 147.65625 140.28125 148.398438 132.953125 148.980469 127.628906 C 149.566406 122.304688 149.863281 119.640625 149.863281 119.640625 L 152.363281 119.640625 C 159.6875 119.640625 166.96875 120.097656 174.203125 121.011719 C 181.441406 121.929688 187.476562 122.886719 192.300781 123.886719 C 197.136719 124.894531 199.554688 125.390625 199.554688 125.390625 L 198.542969 130.390625 C 202.535156 131.054688 205.785156 131.640625 208.277344 132.136719 C 210.78125 132.628906 212.035156 132.875 212.035156 132.875 C 210.695312 140.367188 209.273438 148.730469 207.773438 157.964844 C 206.277344 167.203125 204.78125 176.695312 203.28125 186.4375 C 201.785156 196.175781 200.375 205.535156 199.050781 214.519531 Z M 181.816406 222.753906 C 183.316406 212.441406 184.902344 201.664062 186.570312 190.425781 C 188.234375 179.183594 189.894531 168.117188 191.550781 157.214844 C 193.21875 146.3125 194.882812 136.367188 196.550781 127.382812 C 189.394531 125.71875 182.066406 124.425781 174.578125 123.511719 C 167.097656 122.597656 159.605469 122.140625 152.117188 122.140625 C 152.117188 122.140625 151.863281 124.640625 151.363281 129.640625 C 150.863281 134.628906 150.15625 141.574219 149.242188 150.484375 C 148.328125 159.382812 147.285156 169.703125 146.121094 181.4375 C 144.953125 193.167969 143.789062 205.777344 142.625 219.257812 C 141.796875 228.582031 139.179688 235.28125 134.769531 239.367188 C 130.355469 243.441406 124.738281 245.648438 117.910156 245.980469 L 116.914062 245.980469 C 112.25 245.980469 107.589844 245.148438 102.929688 243.480469 C 98.265625 241.816406 94.4375 240.148438 91.445312 238.484375 C 88.449219 236.816406 86.953125 235.984375 86.953125 235.984375 L 76.464844 261.695312 C 76.464844 261.695312 78.214844 262.65625 81.710938 264.570312 C 85.207031 266.492188 90.109375 268.441406 96.429688 270.4375 C 102.753906 272.4375 109.996094 273.441406 118.15625 273.441406 C 131.308594 273.441406 142.207031 271.988281 150.859375 269.082031 C 159.515625 266.164062 166.335938 261.042969 171.328125 253.726562 C 176.324219 246.398438 179.820312 236.074219 181.816406 222.753906 Z M 181.816406 222.753906 " fill-opacity="1" fill-rule="nonzero"/><path fill="#000000" d="M 246.730469 278.179688 C 240.074219 278.179688 233.75 277.347656 227.765625 275.679688 C 221.773438 274.015625 216.117188 271.097656 210.792969 266.941406 C 201.46875 263.117188 194.511719 257.296875 189.929688 249.476562 C 185.355469 241.648438 183.070312 233.320312 183.070312 224.5 C 183.070312 216.34375 185.191406 208.4375 189.441406 200.78125 C 193.6875 193.128906 199.71875 186.632812 207.539062 181.308594 C 215.355469 175.984375 224.761719 172.90625 235.753906 172.078125 C 241.902344 172.242188 247.4375 173.238281 252.347656 175.070312 C 257.257812 176.898438 261.382812 179.398438 264.714844 182.566406 C 271.53125 185.0625 276.894531 188.886719 280.804688 194.050781 C 284.726562 199.203125 286.6875 204.691406 286.6875 210.515625 C 286.6875 216.179688 285.101562 221.59375 281.933594 226.753906 C 278.773438 231.917969 273.949219 235.996094 267.460938 238.988281 L 268.210938 242.222656 C 271.027344 241.5625 273.4375 240.941406 275.429688 240.363281 C 277.433594 239.773438 278.4375 239.480469 278.4375 239.480469 C 278.4375 239.480469 278.722656 240.734375 279.304688 243.238281 C 279.890625 245.734375 280.515625 248.726562 281.179688 252.222656 C 281.855469 255.71875 282.441406 259.214844 282.929688 262.710938 C 283.429688 266.195312 283.597656 268.941406 283.4375 270.941406 C 283.4375 270.941406 281.851562 271.523438 278.683594 272.691406 C 275.519531 273.855469 271.15625 275.058594 265.582031 276.300781 C 260.003906 277.550781 253.722656 278.179688 246.730469 278.179688 Z M 234.003906 199.03125 C 234.503906 198.871094 235 198.789062 235.492188 198.789062 C 235.988281 198.789062 236.410156 198.789062 236.75 198.789062 C 241.070312 198.789062 243.691406 199.957031 244.605469 202.285156 C 245.519531 204.617188 244.6875 206.949219 242.105469 209.273438 C 239.535156 211.605469 235.253906 212.769531 229.265625 212.769531 C 226.097656 212.769531 222.933594 212.441406 219.777344 211.773438 C 221.101562 208.441406 223.015625 205.613281 225.507812 203.28125 C 228.011719 200.953125 230.84375 199.535156 234.003906 199.03125 Z M 230.261719 268.199219 L 234.492188 268.199219 C 241.324219 268.199219 247.273438 267.660156 252.347656 266.582031 C 257.421875 265.496094 261.375 264.453125 264.207031 263.460938 C 267.039062 262.460938 268.457031 261.957031 268.457031 261.957031 C 268.621094 260.292969 268.492188 258.003906 268.082031 255.097656 C 267.664062 252.179688 267.164062 249.179688 266.578125 246.097656 C 265.996094 243.015625 265.457031 240.4375 264.960938 238.351562 C 264.457031 236.273438 264.207031 235.234375 264.207031 235.234375 C 264.207031 235.234375 263 235.527344 260.582031 236.113281 C 258.171875 236.695312 255.132812 237.320312 251.46875 237.992188 C 247.808594 238.660156 243.894531 238.988281 239.738281 238.988281 C 236.578125 238.988281 233.289062 238.703125 229.871094 238.125 C 226.460938 237.535156 223.761719 235.910156 221.769531 233.238281 C 223.597656 233.402344 225.300781 233.53125 226.882812 233.617188 C 228.46875 233.707031 230.011719 233.746094 231.503906 233.746094 C 242.15625 233.746094 250.640625 231.75 256.972656 227.75 C 263.296875 223.757812 267.582031 218.808594 269.828125 212.902344 C 272.070312 206.988281 272.359375 201.121094 270.695312 195.292969 C 269.035156 189.46875 265.457031 184.558594 259.960938 180.574219 C 254.472656 176.578125 247.234375 174.578125 238.25 174.578125 L 235.753906 174.578125 C 225.265625 174.90625 216.398438 177.363281 209.15625 181.945312 C 201.914062 186.519531 196.339844 192.300781 192.429688 199.292969 C 188.515625 206.285156 186.3125 213.652344 185.8125 221.394531 C 185.3125 229.132812 186.601562 236.492188 189.683594 243.480469 C 192.765625 250.472656 197.675781 256.21875 204.421875 260.714844 C 211.160156 265.203125 219.777344 267.699219 230.261719 268.199219 Z M 230.261719 268.199219 " fill-opacity="1" fill-rule="nonzero"/><path fill="#000000" d="M 273.449219 187.304688 L 314.386719 177.0625 L 315.136719 186.308594 C 322.628906 178.316406 331.785156 174.316406 342.597656 174.316406 C 345.429688 174.316406 348.511719 174.738281 351.84375 175.574219 C 355.175781 176.402344 358.753906 177.730469 362.578125 179.5625 L 361.335938 182.566406 C 365.492188 183.230469 370.066406 184.730469 375.058594 187.058594 L 358.835938 229.253906 C 352.84375 225.585938 348.265625 223.75 345.097656 223.75 C 342.261719 223.75 339.855469 224.753906 337.859375 226.753906 C 335.867188 228.746094 333.949219 231.410156 332.109375 234.742188 L 336.863281 273.441406 C 330.875 276.4375 324.171875 278.429688 316.753906 279.421875 C 309.347656 280.421875 302.984375 280.921875 297.660156 280.921875 C 294.335938 280.921875 291.257812 280.796875 288.429688 280.546875 C 285.59375 280.292969 284.183594 280.171875 284.183594 280.171875 L 284.183594 273.441406 C 281.019531 273.441406 278.152344 273.316406 275.574219 273.066406 C 272.992188 272.8125 271.703125 272.691406 271.703125 272.691406 Z M 311.902344 180.3125 L 275.949219 189.296875 L 274.199219 270.4375 C 274.199219 270.4375 275.238281 270.519531 277.320312 270.679688 C 279.398438 270.851562 282.015625 270.941406 285.179688 270.941406 C 290.503906 270.941406 296.617188 270.527344 303.523438 269.703125 C 310.4375 268.863281 316.476562 267.113281 321.640625 264.441406 L 317.148438 226.753906 C 319.140625 222.761719 321.425781 219.59375 324.007812 217.261719 C 326.589844 214.9375 329.457031 213.769531 332.617188 213.769531 C 336.277344 213.769531 340.433594 215.265625 345.097656 218.261719 L 359.585938 180.820312 C 354.085938 178.152344 348.421875 176.816406 342.597656 176.816406 C 330.453125 176.816406 320.636719 182.058594 313.144531 192.546875 Z M 311.902344 180.3125 " fill-opacity="1" fill-rule="nonzero"/><path fill="#000000" d="M 352.09375 187.304688 L 393.03125 177.0625 L 393.78125 186.308594 C 401.269531 178.316406 410.425781 174.316406 421.242188 174.316406 C 424.070312 174.316406 427.15625 174.738281 430.488281 175.574219 C 433.820312 176.402344 437.398438 177.730469 441.21875 179.5625 L 439.980469 182.566406 C 444.136719 183.230469 448.710938 184.730469 453.699219 187.058594 L 437.480469 229.253906 C 431.488281 225.585938 426.910156 223.75 423.742188 223.75 C 420.90625 223.75 418.496094 224.753906 416.503906 226.753906 C 414.511719 228.746094 412.59375 231.410156 410.753906 234.742188 L 415.507812 273.441406 C 409.515625 276.4375 402.816406 278.429688 395.398438 279.421875 C 387.992188 280.421875 381.628906 280.921875 376.300781 280.921875 C 372.976562 280.921875 369.902344 280.796875 367.074219 280.546875 C 364.238281 280.292969 362.824219 280.171875 362.824219 280.171875 L 362.824219 273.441406 C 359.664062 273.441406 356.796875 273.316406 354.214844 273.066406 C 351.636719 272.8125 350.34375 272.691406 350.34375 272.691406 Z M 390.546875 180.3125 L 354.59375 189.296875 L 352.84375 270.4375 C 352.84375 270.4375 353.882812 270.519531 355.964844 270.679688 C 358.042969 270.851562 360.660156 270.941406 363.820312 270.941406 C 369.148438 270.941406 375.261719 270.527344 382.167969 269.703125 C 389.082031 268.863281 395.121094 267.113281 400.28125 264.441406 L 395.789062 226.753906 C 397.785156 222.761719 400.070312 219.59375 402.652344 217.261719 C 405.234375 214.9375 408.101562 213.769531 411.261719 213.769531 C 414.921875 213.769531 419.078125 215.265625 423.742188 218.261719 L 438.230469 180.820312 C 432.730469 178.152344 427.066406 176.816406 421.242188 176.816406 C 409.097656 176.816406 399.277344 182.058594 391.789062 192.546875 Z M 390.546875 180.3125 " fill-opacity="1" fill-rule="nonzero"/><path fill="#000000" d="M 441.96875 311.128906 L 428.230469 305.394531 C 437.054688 293.414062 443.253906 283.636719 446.839844 276.054688 C 450.421875 268.488281 452.542969 263.703125 453.210938 261.695312 C 448.046875 254.042969 443.636719 245.71875 439.976562 236.734375 C 436.316406 227.75 433.320312 219.183594 430.992188 211.023438 C 428.664062 202.867188 426.957031 196.214844 425.878906 191.0625 C 424.792969 185.898438 424.246094 183.316406 424.246094 183.316406 L 468.433594 180.3125 C 468.433594 181.644531 468.433594 183.054688 468.433594 184.558594 C 468.433594 186.054688 468.515625 187.46875 468.679688 188.808594 L 480.914062 187.808594 C 480.914062 190.808594 481.039062 193.847656 481.289062 196.925781 C 481.539062 199.996094 481.832031 202.949219 482.171875 205.78125 C 483.664062 198.789062 484.742188 192.507812 485.40625 186.929688 C 486.070312 181.355469 486.402344 178.5625 486.402344 178.5625 L 527.113281 181.570312 C 526.773438 182.738281 526.480469 183.855469 526.230469 184.933594 C 525.976562 186.011719 525.691406 187.054688 525.363281 188.054688 L 539.59375 189.050781 C 535.757812 203.539062 532.09375 216.273438 528.597656 227.261719 C 525.101562 238.238281 521.523438 248.054688 517.867188 256.714844 C 514.207031 265.363281 510.335938 273.429688 506.25 280.921875 C 502.175781 288.414062 497.726562 295.902344 492.90625 303.386719 C 488.078125 310.875 482.667969 319.035156 476.667969 327.855469 L 440.730469 312.875 C 440.890625 312.386719 441.304688 311.800781 441.96875 311.128906 Z M 456.199219 261.207031 C 456.199219 261.207031 454.613281 265.199219 451.445312 273.179688 C 448.285156 281.171875 441.878906 291.578125 432.234375 304.398438 L 463.191406 317.367188 C 468.851562 308.882812 474.054688 301.019531 478.792969 293.78125 C 483.535156 286.535156 487.867188 279.292969 491.777344 272.054688 C 495.6875 264.824219 499.390625 257.050781 502.886719 248.726562 C 506.382812 240.40625 509.832031 230.964844 513.242188 220.398438 C 516.660156 209.828125 520.203125 197.628906 523.863281 183.808594 L 488.65625 181.308594 C 488.65625 181.308594 488.40625 183.183594 487.90625 186.929688 C 487.402344 190.675781 486.617188 195.300781 485.539062 200.796875 C 484.460938 206.285156 483.125 211.902344 481.535156 217.640625 C 479.953125 223.382812 478.082031 228.25 475.917969 232.242188 C 475.917969 232.242188 475.082031 230.039062 473.417969 225.628906 C 471.757812 221.214844 470.101562 215.269531 468.433594 207.789062 C 466.769531 200.300781 465.933594 192.054688 465.933594 183.054688 L 427.234375 185.554688 C 427.234375 185.554688 427.773438 188.054688 428.851562 193.054688 C 429.9375 198.042969 431.648438 204.453125 433.980469 212.28125 C 436.308594 220.101562 439.308594 228.378906 442.96875 237.113281 C 446.625 245.847656 451.035156 253.878906 456.199219 261.207031 Z M 456.199219 261.207031 " fill-opacity="1" fill-rule="nonzero"/></svg>