<svg xmlns="http://www.w3.org/2000/svg" xmlns:xlink="http://www.w3.org/1999/xlink" width="384" zoomAndPan="magnify" viewBox="0 0 288 199.499995" height="266" preserveAspectRatio="xMidYMid meet" version="1.0"><defs><clipPath id="2cfaf6d4c4"><path d="M 23.238281 0.503906 L 257.136719 0.503906 L 257.136719 161.742188 L 23.238281 161.742188 Z M 23.238281 0.503906 " clip-rule="nonzero"/></clipPath><clipPath id="f856823b01"><path d="M 0.84375 55.550781 L 280.269531 55.550781 L 280.269531 107.304688 L 0.84375 107.304688 Z M 0.84375 55.550781 " clip-rule="nonzero"/></clipPath><clipPath id="3dd5e84ee8"><rect x="0" width="281" y="0" height="163"/></clipPath></defs><g transform="matrix(1, 0, 0, 1, 3, 18)"><g clip-path="url(#3dd5e84ee8)"><g clip-path="url(#2cfaf6d4c4)"><path fill="#898686" d="M 126.1875 60.195312 C 131.207031 56.832031 136.265625 53.527344 141.363281 50.289062 C 146.457031 47.050781 151.589844 43.867188 156.765625 40.742188 C 167.109375 34.5 177.609375 28.511719 188.308594 22.886719 C 193.660156 20.082031 199.058594 17.359375 204.523438 14.78125 C 209.992188 12.199219 215.523438 9.753906 221.152344 7.535156 C 223.96875 6.425781 226.804688 5.378906 229.679688 4.417969 C 232.554688 3.457031 235.460938 2.589844 238.410156 1.886719 C 239.886719 1.535156 241.378906 1.226562 242.882812 0.984375 C 244.394531 0.734375 245.914062 0.582031 247.445312 0.523438 C 248.21875 0.496094 248.992188 0.511719 249.765625 0.566406 C 250.546875 0.621094 251.320312 0.742188 252.082031 0.925781 C 252.867188 1.113281 253.613281 1.40625 254.316406 1.804688 C 254.679688 2.011719 255.015625 2.253906 255.328125 2.539062 C 255.632812 2.820312 255.90625 3.132812 256.140625 3.480469 C 256.371094 3.828125 256.566406 4.195312 256.710938 4.589844 C 256.859375 4.980469 256.960938 5.382812 257.011719 5.796875 C 257.070312 6.199219 257.097656 6.605469 257.09375 7.011719 C 257.085938 7.414062 257.054688 7.808594 257 8.207031 C 256.886719 8.984375 256.707031 9.75 256.46875 10.5 C 256.234375 11.242188 255.960938 11.964844 255.648438 12.675781 C 255.023438 14.082031 254.316406 15.4375 253.519531 16.753906 C 252.734375 18.066406 251.894531 19.347656 251.015625 20.585938 C 249.257812 23.074219 247.367188 25.453125 245.410156 27.773438 C 243.445312 30.089844 241.414062 32.34375 239.332031 34.542969 C 235.167969 38.949219 230.824219 43.175781 226.386719 47.292969 C 221.945312 51.410156 217.402344 55.417969 212.785156 59.328125 C 203.554688 67.152344 194.035156 74.632812 184.332031 81.863281 C 179.480469 85.472656 174.578125 89.023438 169.636719 92.503906 C 164.691406 95.988281 159.703125 99.414062 154.675781 102.777344 C 144.617188 109.5 134.398438 115.976562 124.019531 122.203125 C 118.828125 125.3125 113.59375 128.34375 108.316406 131.300781 C 103.03125 134.253906 97.703125 137.117188 92.328125 139.894531 C 86.949219 142.667969 81.511719 145.324219 76.015625 147.867188 C 70.515625 150.398438 64.949219 152.796875 59.285156 154.960938 C 56.457031 156.046875 53.597656 157.0625 50.707031 157.992188 C 47.816406 158.921875 44.894531 159.757812 41.921875 160.429688 C 40.4375 160.761719 38.9375 161.058594 37.421875 161.277344 C 35.902344 161.511719 34.371094 161.648438 32.835938 161.6875 C 32.0625 161.707031 31.289062 161.679688 30.515625 161.617188 C 29.730469 161.550781 28.960938 161.425781 28.195312 161.230469 C 27.808594 161.132812 27.429688 161.007812 27.058594 160.859375 C 26.679688 160.710938 26.316406 160.53125 25.964844 160.320312 C 25.601562 160.113281 25.269531 159.867188 24.960938 159.582031 C 24.65625 159.296875 24.386719 158.976562 24.160156 158.628906 C 23.925781 158.277344 23.738281 157.910156 23.59375 157.515625 C 23.453125 157.121094 23.355469 156.71875 23.304688 156.300781 C 23.203125 155.5 23.21875 154.699219 23.347656 153.902344 C 23.46875 153.128906 23.652344 152.367188 23.898438 151.621094 C 24.140625 150.890625 24.421875 150.171875 24.742188 149.46875 C 25.378906 148.074219 26.101562 146.726562 26.910156 145.425781 C 27.707031 144.128906 28.5625 142.867188 29.449219 141.636719 C 31.226562 139.179688 33.144531 136.820312 35.125 134.53125 C 37.109375 132.242188 39.167969 130.019531 41.265625 127.847656 C 45.464844 123.492188 49.839844 119.3125 54.3125 115.246094 C 58.785156 111.179688 63.363281 107.230469 68 103.355469 C 77.273438 95.613281 86.824219 88.199219 96.542969 81.015625 C 101.402344 77.425781 106.304688 73.894531 111.253906 70.429688 C 116.203125 66.964844 121.179688 63.550781 126.1875 60.195312 Z M 126.1875 60.195312 C 121.167969 63.5625 116.1875 66.980469 111.246094 70.457031 C 106.304688 73.929688 101.414062 77.472656 96.574219 81.085938 C 86.886719 88.304688 77.382812 95.773438 68.167969 103.582031 C 63.558594 107.488281 59.039062 111.488281 54.601562 115.585938 C 50.175781 119.691406 45.847656 123.90625 41.707031 128.289062 C 39.632812 130.484375 37.617188 132.726562 35.664062 135.023438 C 33.71875 137.320312 31.84375 139.679688 30.113281 142.136719 C 29.25 143.363281 28.421875 144.617188 27.65625 145.902344 C 26.882812 147.175781 26.195312 148.496094 25.589844 149.859375 C 25.289062 150.535156 25.03125 151.222656 24.808594 151.929688 C 24.585938 152.621094 24.421875 153.328125 24.316406 154.054688 C 24.269531 154.40625 24.238281 154.761719 24.234375 155.117188 C 24.230469 155.46875 24.253906 155.816406 24.300781 156.164062 C 24.386719 156.851562 24.625 157.480469 25.011719 158.050781 C 25.398438 158.625 25.894531 159.074219 26.5 159.410156 C 26.800781 159.585938 27.117188 159.734375 27.441406 159.859375 C 27.773438 159.984375 28.113281 160.089844 28.457031 160.175781 C 29.164062 160.34375 29.878906 160.453125 30.601562 160.503906 C 31.339844 160.558594 32.070312 160.574219 32.808594 160.546875 C 34.292969 160.488281 35.769531 160.339844 37.238281 160.097656 C 38.710938 159.863281 40.175781 159.550781 41.632812 159.210938 C 44.546875 158.515625 47.425781 157.652344 50.277344 156.703125 C 53.128906 155.75 55.949219 154.707031 58.75 153.605469 C 64.351562 151.398438 69.863281 148.957031 75.316406 146.386719 C 80.765625 143.8125 86.148438 141.097656 91.492188 138.296875 C 102.167969 132.6875 112.648438 126.703125 122.980469 120.476562 C 133.3125 114.25 143.488281 107.753906 153.515625 101.046875 C 158.53125 97.695312 163.507812 94.285156 168.445312 90.816406 C 173.382812 87.347656 178.28125 83.824219 183.136719 80.242188 C 192.835938 73.074219 202.367188 65.671875 211.632812 57.945312 C 216.257812 54.078125 220.824219 50.140625 225.285156 46.082031 C 229.742188 42.027344 234.101562 37.863281 238.28125 33.535156 C 240.367188 31.367188 242.410156 29.15625 244.378906 26.886719 C 246.347656 24.613281 248.246094 22.28125 250 19.855469 C 250.875 18.640625 251.714844 17.398438 252.496094 16.128906 C 253.28125 14.863281 253.984375 13.558594 254.601562 12.203125 C 254.90625 11.535156 255.175781 10.851562 255.402344 10.152344 C 255.636719 9.464844 255.804688 8.761719 255.917969 8.042969 C 255.972656 7.691406 256.003906 7.335938 256.015625 6.980469 C 256.023438 6.632812 256.007812 6.285156 255.960938 5.9375 C 255.882812 5.25 255.65625 4.621094 255.273438 4.042969 C 254.894531 3.464844 254.402344 3.003906 253.800781 2.664062 C 253.496094 2.484375 253.183594 2.332031 252.859375 2.199219 C 252.523438 2.070312 252.183594 1.960938 251.835938 1.871094 C 251.132812 1.691406 250.414062 1.570312 249.6875 1.511719 C 248.949219 1.449219 248.214844 1.425781 247.476562 1.445312 C 245.980469 1.484375 244.496094 1.617188 243.019531 1.84375 C 241.542969 2.0625 240.066406 2.351562 238.601562 2.679688 C 235.671875 3.34375 232.773438 4.183594 229.90625 5.09375 C 227.039062 6.003906 224.195312 7.027344 221.382812 8.105469 C 215.746094 10.261719 210.195312 12.652344 204.71875 15.175781 C 199.238281 17.699219 193.804688 20.355469 188.441406 23.128906 C 177.707031 28.664062 167.171875 34.59375 156.804688 40.792969 C 151.621094 43.898438 146.476562 47.066406 141.375 50.300781 C 136.273438 53.535156 131.210938 56.832031 126.1875 60.195312 Z M 126.1875 60.195312 " fill-opacity="1" fill-rule="nonzero"/></g><g clip-path="url(#f856823b01)"><path fill="#898686" d="M 140.496094 55.816406 C 146.539062 55.816406 152.582031 55.882812 158.621094 56.015625 C 164.660156 56.152344 170.699219 56.359375 176.730469 56.640625 C 188.800781 57.207031 200.859375 58.0625 212.882812 59.339844 C 218.886719 59.984375 224.886719 60.71875 230.867188 61.613281 C 236.851562 62.511719 242.804688 63.550781 248.71875 64.835938 C 251.671875 65.484375 254.617188 66.1875 257.539062 66.988281 C 260.460938 67.785156 263.359375 68.679688 266.207031 69.734375 C 267.628906 70.265625 269.039062 70.839844 270.421875 71.476562 C 271.820312 72.109375 273.167969 72.824219 274.472656 73.628906 C 275.128906 74.035156 275.761719 74.476562 276.371094 74.953125 C 276.992188 75.433594 277.566406 75.960938 278.097656 76.539062 C 278.648438 77.128906 279.101562 77.789062 279.460938 78.507812 C 279.652344 78.882812 279.796875 79.269531 279.894531 79.675781 C 279.992188 80.082031 280.042969 80.496094 280.046875 80.914062 C 280.046875 81.332031 280 81.746094 279.90625 82.152344 C 279.8125 82.558594 279.671875 82.949219 279.484375 83.324219 C 279.3125 83.691406 279.105469 84.042969 278.875 84.378906 C 278.648438 84.707031 278.402344 85.019531 278.132812 85.320312 C 277.609375 85.90625 277.035156 86.445312 276.417969 86.933594 C 275.8125 87.417969 275.183594 87.867188 274.527344 88.285156 C 273.226562 89.105469 271.882812 89.839844 270.488281 90.492188 C 269.105469 91.148438 267.699219 91.734375 266.28125 92.285156 C 263.4375 93.375 260.539062 94.304688 257.621094 95.140625 C 254.703125 95.976562 251.757812 96.71875 248.808594 97.390625 C 242.898438 98.734375 236.941406 99.839844 230.957031 100.789062 C 224.976562 101.746094 218.976562 102.550781 212.964844 103.230469 C 200.9375 104.605469 188.867188 105.53125 176.78125 106.144531 C 170.738281 106.449219 164.695312 106.675781 158.644531 106.828125 C 152.597656 106.980469 146.550781 107.054688 140.503906 107.050781 C 128.40625 107.046875 116.3125 106.746094 104.21875 106.152344 C 98.175781 105.851562 92.136719 105.460938 86.105469 104.980469 C 80.070312 104.5 74.046875 103.921875 68.035156 103.242188 C 62.019531 102.558594 56.023438 101.746094 50.039062 100.800781 C 44.0625 99.847656 38.101562 98.746094 32.1875 97.398438 C 29.234375 96.726562 26.292969 95.984375 23.375 95.152344 C 20.453125 94.316406 17.5625 93.386719 14.726562 92.296875 C 13.304688 91.75 11.894531 91.160156 10.515625 90.503906 C 9.121094 89.851562 7.773438 89.117188 6.476562 88.292969 C 5.820312 87.878906 5.191406 87.429688 4.585938 86.945312 C 3.964844 86.453125 3.386719 85.914062 2.855469 85.324219 C 2.589844 85.023438 2.34375 84.710938 2.113281 84.382812 C 1.886719 84.046875 1.679688 83.699219 1.507812 83.328125 C 1.320312 82.953125 1.175781 82.5625 1.085938 82.15625 C 0.988281 81.746094 0.941406 81.332031 0.945312 80.914062 C 0.945312 80.496094 0.996094 80.085938 1.097656 79.675781 C 1.195312 79.269531 1.339844 78.878906 1.53125 78.507812 C 1.890625 77.785156 2.34375 77.128906 2.890625 76.535156 C 3.425781 75.957031 4.007812 75.429688 4.628906 74.949219 C 5.242188 74.472656 5.871094 74.03125 6.527344 73.625 C 7.832031 72.820312 9.183594 72.105469 10.582031 71.472656 C 11.964844 70.835938 13.375 70.261719 14.796875 69.730469 C 17.648438 68.675781 20.546875 67.785156 23.464844 66.984375 C 26.386719 66.183594 29.332031 65.484375 32.285156 64.832031 C 38.199219 63.546875 44.15625 62.507812 50.136719 61.613281 C 56.117188 60.71875 62.113281 59.980469 68.125 59.335938 C 80.144531 58.058594 92.199219 57.207031 104.269531 56.640625 C 110.308594 56.355469 116.34375 56.148438 122.386719 56.015625 C 128.425781 55.886719 134.460938 55.820312 140.496094 55.816406 Z M 140.496094 55.816406 C 134.457031 55.816406 128.414062 55.890625 122.378906 56.039062 C 116.335938 56.1875 110.300781 56.414062 104.265625 56.722656 C 92.203125 57.332031 80.152344 58.257812 68.148438 59.628906 C 62.144531 60.3125 56.164062 61.121094 50.199219 62.066406 C 44.238281 63.019531 38.300781 64.113281 32.417969 65.453125 C 29.476562 66.121094 26.554688 66.867188 23.65625 67.691406 C 20.761719 68.519531 17.890625 69.441406 15.085938 70.519531 C 13.683594 71.0625 12.300781 71.640625 10.949219 72.28125 C 9.597656 72.914062 8.289062 73.625 7.027344 74.425781 C 6.40625 74.820312 5.804688 75.25 5.226562 75.710938 C 4.65625 76.164062 4.125 76.664062 3.636719 77.203125 C 3.398438 77.472656 3.179688 77.75 2.972656 78.042969 C 2.777344 78.332031 2.601562 78.636719 2.449219 78.953125 C 2.140625 79.570312 1.984375 80.226562 1.988281 80.914062 C 1.992188 81.609375 2.15625 82.257812 2.472656 82.875 C 2.628906 83.1875 2.804688 83.484375 3.007812 83.769531 C 3.210938 84.0625 3.4375 84.335938 3.675781 84.597656 C 4.167969 85.132812 4.699219 85.621094 5.273438 86.066406 C 5.855469 86.519531 6.457031 86.9375 7.082031 87.328125 C 8.347656 88.105469 9.660156 88.800781 11.015625 89.414062 C 12.367188 90.039062 13.757812 90.601562 15.160156 91.121094 C 17.96875 92.164062 20.84375 93.046875 23.742188 93.84375 C 26.640625 94.636719 29.566406 95.34375 32.507812 95.980469 C 38.386719 97.261719 44.328125 98.296875 50.289062 99.1875 C 56.246094 100.078125 62.234375 100.816406 68.230469 101.457031 C 80.222656 102.730469 92.261719 103.585938 104.3125 104.152344 C 116.363281 104.71875 128.429688 104.980469 140.496094 104.96875 C 146.527344 104.96875 152.5625 104.902344 158.59375 104.769531 C 164.628906 104.632812 170.65625 104.425781 176.679688 104.148438 C 188.730469 103.582031 200.769531 102.730469 212.761719 101.457031 C 218.765625 100.8125 224.742188 100.082031 230.707031 99.1875 C 236.667969 98.292969 242.605469 97.257812 248.488281 95.980469 C 251.429688 95.335938 254.355469 94.636719 257.257812 93.84375 C 260.15625 93.046875 263.027344 92.164062 265.835938 91.121094 C 267.242188 90.597656 268.625 90.035156 269.980469 89.414062 C 271.335938 88.800781 272.648438 88.101562 273.914062 87.324219 C 274.539062 86.9375 275.144531 86.515625 275.722656 86.0625 C 276.296875 85.617188 276.832031 85.128906 277.324219 84.59375 C 277.5625 84.332031 277.785156 84.058594 277.992188 83.765625 C 278.195312 83.484375 278.375 83.183594 278.527344 82.871094 C 278.847656 82.257812 279.007812 81.605469 279.011719 80.910156 C 279.015625 80.21875 278.863281 79.5625 278.550781 78.945312 C 278.398438 78.628906 278.222656 78.324219 278.027344 78.035156 C 277.820312 77.742188 277.601562 77.464844 277.363281 77.195312 C 276.875 76.652344 276.34375 76.15625 275.773438 75.703125 C 275.195312 75.242188 274.59375 74.8125 273.972656 74.414062 C 272.710938 73.617188 271.402344 72.902344 270.046875 72.269531 C 268.695312 71.628906 267.3125 71.042969 265.910156 70.507812 C 263.105469 69.429688 260.238281 68.511719 257.34375 67.679688 C 254.449219 66.851562 251.523438 66.113281 248.582031 65.445312 C 242.699219 64.105469 236.757812 63.007812 230.796875 62.058594 C 224.835938 61.105469 218.851562 60.304688 212.847656 59.621094 C 200.84375 58.257812 188.792969 57.328125 176.730469 56.714844 C 170.695312 56.414062 164.660156 56.1875 158.621094 56.03125 C 152.582031 55.878906 146.539062 55.808594 140.496094 55.816406 Z M 140.496094 55.816406 " fill-opacity="1" fill-rule="nonzero"/></g><path fill="#898686" d="M 90.949219 91.613281 L 90.949219 91.730469 C 90.078125 97.675781 88.492188 102.410156 86.199219 105.933594 C 83.898438 109.460938 80.730469 112.054688 76.6875 113.71875 C 72.648438 115.382812 67.578125 116.410156 61.476562 116.804688 C 58.386719 116.804688 55.4375 116.488281 52.621094 115.851562 C 49.8125 115.214844 47.335938 114.484375 45.195312 113.65625 C 43.058594 112.828125 41.355469 112.09375 40.085938 111.457031 C 38.820312 110.824219 38.191406 110.507812 38.191406 110.507812 L 38.421875 109.792969 C 36.527344 109.082031 35.023438 108.429688 33.914062 107.839844 C 32.804688 107.246094 32.25 106.945312 32.25 106.945312 L 38.074219 92.5625 C 40.207031 93.910156 42.640625 95.121094 45.375 96.191406 C 48.113281 97.261719 50.746094 97.792969 53.28125 97.792969 C 56.132812 97.636719 58.511719 96.605469 60.414062 94.707031 C 62.3125 92.804688 63.503906 89.953125 63.972656 86.144531 C 64.527344 79.890625 65.082031 73.929688 65.636719 68.261719 C 66.191406 62.597656 66.6875 57.542969 67.125 53.105469 C 67.558594 48.671875 67.914062 45.183594 68.1875 42.648438 C 68.46875 40.113281 68.609375 38.84375 68.609375 38.84375 L 69.796875 38.84375 C 73.285156 38.84375 76.753906 39.0625 80.195312 39.5 C 83.640625 39.933594 86.511719 40.390625 88.808594 40.867188 C 91.113281 41.34375 92.261719 41.582031 92.261719 41.582031 L 91.78125 43.960938 C 93.683594 44.277344 95.226562 44.558594 96.414062 44.792969 C 97.605469 45.027344 98.203125 45.144531 98.203125 45.144531 C 97.566406 48.710938 96.890625 52.691406 96.175781 57.085938 C 95.460938 61.484375 94.75 66.003906 94.035156 70.640625 C 93.324219 75.277344 92.652344 79.730469 92.023438 84.007812 Z M 83.816406 87.925781 C 84.535156 83.019531 85.289062 77.886719 86.082031 72.539062 C 86.875 67.1875 87.664062 61.921875 88.453125 56.730469 C 89.246094 51.542969 90.039062 46.808594 90.832031 42.53125 C 87.425781 41.738281 83.9375 41.125 80.375 40.6875 C 76.8125 40.253906 73.246094 40.035156 69.683594 40.035156 C 69.683594 40.035156 69.5625 41.226562 69.324219 43.605469 C 69.085938 45.980469 68.75 49.285156 68.3125 53.527344 C 67.878906 57.761719 67.382812 62.675781 66.828125 68.261719 C 66.273438 73.84375 65.71875 79.84375 65.164062 86.261719 C 64.769531 90.699219 63.523438 93.890625 61.425781 95.835938 C 59.324219 97.773438 56.648438 98.824219 53.398438 98.984375 L 52.925781 98.984375 C 50.703125 98.984375 48.488281 98.585938 46.269531 97.792969 C 44.050781 97 42.226562 96.207031 40.800781 95.414062 C 39.375 94.621094 38.664062 94.226562 38.664062 94.226562 L 33.671875 106.464844 C 33.671875 106.464844 34.503906 106.921875 36.167969 107.832031 C 37.832031 108.746094 40.167969 109.675781 43.175781 110.625 C 46.183594 111.578125 49.632812 112.054688 53.515625 112.054688 C 59.777344 112.054688 64.964844 111.363281 69.082031 109.980469 C 73.203125 108.589844 76.449219 106.152344 78.828125 102.667969 C 81.207031 99.183594 82.871094 94.269531 83.816406 87.925781 Z M 83.816406 87.925781 " fill-opacity="1" fill-rule="nonzero"/><path fill="#898686" d="M 114.71875 114.308594 C 111.550781 114.308594 108.539062 113.914062 105.691406 113.121094 C 102.839844 112.328125 100.144531 110.9375 97.609375 108.960938 C 93.171875 107.140625 89.863281 104.371094 87.679688 100.648438 C 85.503906 96.921875 84.414062 92.957031 84.414062 88.757812 C 84.414062 84.875 85.425781 81.113281 87.449219 77.46875 C 89.46875 73.824219 92.339844 70.734375 96.0625 68.199219 C 99.785156 65.664062 104.261719 64.199219 109.492188 63.804688 C 112.421875 63.882812 115.054688 64.359375 117.394531 65.230469 C 119.730469 66.101562 121.691406 67.289062 123.277344 68.796875 C 126.523438 69.984375 129.074219 71.808594 130.9375 74.265625 C 132.804688 76.71875 133.738281 79.332031 133.738281 82.101562 C 133.738281 84.800781 132.984375 87.375 131.476562 89.832031 C 129.96875 92.289062 127.675781 94.230469 124.585938 95.65625 L 124.941406 97.195312 C 126.285156 96.878906 127.429688 96.585938 128.378906 96.308594 C 129.332031 96.027344 129.8125 95.890625 129.8125 95.890625 C 129.8125 95.890625 129.945312 96.484375 130.222656 97.675781 C 130.503906 98.867188 130.800781 100.289062 131.117188 101.953125 C 131.4375 103.617188 131.714844 105.28125 131.949219 106.945312 C 132.1875 108.605469 132.269531 109.914062 132.191406 110.867188 C 132.191406 110.867188 131.4375 111.140625 129.925781 111.699219 C 128.421875 112.25 126.34375 112.824219 123.691406 113.414062 C 121.035156 114.011719 118.046875 114.308594 114.71875 114.308594 Z M 108.660156 76.636719 C 108.898438 76.558594 109.132812 76.519531 109.367188 76.519531 C 109.605469 76.519531 109.804688 76.519531 109.964844 76.519531 C 112.023438 76.519531 113.269531 77.074219 113.707031 78.183594 C 114.140625 79.292969 113.746094 80.402344 112.515625 81.511719 C 111.292969 82.621094 109.253906 83.175781 106.40625 83.175781 C 104.898438 83.175781 103.390625 83.019531 101.886719 82.703125 C 102.519531 81.113281 103.429688 79.769531 104.617188 78.65625 C 105.808594 77.550781 107.15625 76.875 108.660156 76.636719 Z M 106.878906 109.558594 L 108.894531 109.558594 C 112.144531 109.558594 114.976562 109.300781 117.394531 108.789062 C 119.808594 108.273438 121.6875 107.777344 123.039062 107.304688 C 124.386719 106.828125 125.058594 106.589844 125.058594 106.589844 C 125.136719 105.796875 125.078125 104.707031 124.878906 103.324219 C 124.683594 101.933594 124.445312 100.507812 124.164062 99.039062 C 123.890625 97.574219 123.632812 96.34375 123.394531 95.351562 C 123.15625 94.363281 123.039062 93.867188 123.039062 93.867188 C 123.039062 93.867188 122.460938 94.007812 121.3125 94.289062 C 120.164062 94.5625 118.71875 94.859375 116.972656 95.179688 C 115.230469 95.5 113.367188 95.65625 111.390625 95.65625 C 109.886719 95.65625 108.320312 95.519531 106.691406 95.242188 C 105.070312 94.964844 103.785156 94.191406 102.835938 92.917969 C 103.707031 92.996094 104.519531 93.058594 105.269531 93.097656 C 106.027344 93.140625 106.757812 93.160156 107.472656 93.160156 C 112.539062 93.160156 116.582031 92.210938 119.59375 90.304688 C 122.605469 88.40625 124.644531 86.046875 125.710938 83.238281 C 126.78125 80.421875 126.917969 77.628906 126.125 74.855469 C 125.335938 72.082031 123.632812 69.746094 121.015625 67.847656 C 118.402344 65.949219 114.957031 64.996094 110.683594 64.996094 L 109.492188 64.996094 C 104.5 65.152344 100.28125 66.320312 96.832031 68.503906 C 93.386719 70.679688 90.730469 73.433594 88.871094 76.761719 C 87.007812 80.089844 85.957031 83.59375 85.722656 87.28125 C 85.484375 90.964844 86.097656 94.464844 87.566406 97.792969 C 89.03125 101.121094 91.367188 103.855469 94.578125 105.996094 C 97.785156 108.132812 101.886719 109.320312 106.878906 109.558594 Z M 106.878906 109.558594 " fill-opacity="1" fill-rule="nonzero"/><path fill="#898686" d="M 127.4375 71.054688 L 146.921875 66.175781 L 147.28125 70.578125 C 150.84375 66.773438 155.203125 64.871094 160.351562 64.871094 C 161.699219 64.871094 163.167969 65.070312 164.753906 65.46875 C 166.339844 65.863281 168.042969 66.496094 169.863281 67.367188 L 169.269531 68.796875 C 171.25 69.113281 173.425781 69.828125 175.800781 70.9375 L 168.082031 91.019531 C 165.230469 89.277344 163.050781 88.402344 161.542969 88.402344 C 160.191406 88.402344 159.046875 88.878906 158.097656 89.832031 C 157.148438 90.78125 156.234375 92.046875 155.359375 93.632812 L 157.621094 112.054688 C 154.769531 113.480469 151.582031 114.429688 148.050781 114.902344 C 144.523438 115.378906 141.496094 115.617188 138.960938 115.617188 C 137.378906 115.617188 135.914062 115.554688 134.566406 115.4375 C 133.21875 115.316406 132.546875 115.257812 132.546875 115.257812 L 132.546875 112.054688 C 131.039062 112.054688 129.675781 111.996094 128.449219 111.875 C 127.21875 111.753906 126.605469 111.699219 126.605469 111.699219 Z M 145.742188 67.726562 L 128.625 72 L 127.792969 110.625 C 127.792969 110.625 128.289062 110.664062 129.28125 110.742188 C 130.269531 110.824219 131.515625 110.867188 133.019531 110.867188 C 135.554688 110.867188 138.464844 110.667969 141.75 110.273438 C 145.042969 109.875 147.917969 109.042969 150.375 107.769531 L 148.238281 89.832031 C 149.183594 87.929688 150.273438 86.425781 151.503906 85.3125 C 152.730469 84.207031 154.097656 83.648438 155.601562 83.648438 C 157.34375 83.648438 159.320312 84.363281 161.542969 85.789062 L 168.4375 67.964844 C 165.820312 66.695312 163.125 66.0625 160.351562 66.0625 C 154.570312 66.0625 149.898438 68.558594 146.332031 73.550781 Z M 145.742188 67.726562 " fill-opacity="1" fill-rule="nonzero"/><path fill="#898686" d="M 164.871094 71.054688 L 184.355469 66.175781 L 184.714844 70.578125 C 188.28125 66.773438 192.636719 64.871094 197.785156 64.871094 C 199.132812 64.871094 200.601562 65.070312 202.1875 65.46875 C 203.773438 65.863281 205.476562 66.496094 207.296875 67.367188 L 206.703125 68.796875 C 208.683594 69.113281 210.859375 69.828125 213.238281 70.9375 L 205.515625 91.019531 C 202.664062 89.277344 200.484375 88.402344 198.976562 88.402344 C 197.625 88.402344 196.480469 88.878906 195.53125 89.832031 C 194.582031 90.78125 193.667969 92.046875 192.792969 93.632812 L 195.054688 112.054688 C 192.203125 113.480469 189.015625 114.429688 185.484375 114.902344 C 181.957031 115.378906 178.929688 115.617188 176.394531 115.617188 C 174.8125 115.617188 173.347656 115.554688 172 115.4375 C 170.652344 115.316406 169.980469 115.257812 169.980469 115.257812 L 169.980469 112.054688 C 168.476562 112.054688 167.109375 111.996094 165.882812 111.875 C 164.652344 111.753906 164.039062 111.699219 164.039062 111.699219 Z M 183.175781 67.726562 L 166.058594 72 L 165.226562 110.625 C 165.226562 110.625 165.722656 110.664062 166.714844 110.742188 C 167.703125 110.824219 168.949219 110.867188 170.453125 110.867188 C 172.988281 110.867188 175.898438 110.667969 179.1875 110.273438 C 182.476562 109.875 185.351562 109.042969 187.808594 107.769531 L 185.671875 89.832031 C 186.621094 87.929688 187.707031 86.425781 188.9375 85.3125 C 190.164062 84.207031 191.53125 83.648438 193.035156 83.648438 C 194.777344 83.648438 196.753906 84.363281 198.976562 85.789062 L 205.871094 67.964844 C 203.253906 66.695312 200.558594 66.0625 197.785156 66.0625 C 192.003906 66.0625 187.332031 68.558594 183.765625 73.550781 Z M 183.175781 67.726562 " fill-opacity="1" fill-rule="nonzero"/><path fill="#898686" d="M 207.652344 129.992188 L 201.113281 127.265625 C 205.3125 121.5625 208.261719 116.90625 209.96875 113.300781 C 211.675781 109.695312 212.6875 107.417969 213.003906 106.464844 C 210.546875 102.820312 208.445312 98.859375 206.703125 94.582031 C 204.960938 90.304688 203.535156 86.226562 202.425781 82.34375 C 201.320312 78.460938 200.507812 75.292969 199.992188 72.839844 C 199.476562 70.382812 199.214844 69.15625 199.214844 69.15625 L 220.25 67.726562 C 220.25 68.359375 220.25 69.03125 220.25 69.746094 C 220.25 70.457031 220.289062 71.132812 220.367188 71.769531 L 226.191406 71.292969 C 226.191406 72.722656 226.25 74.167969 226.367188 75.632812 C 226.488281 77.09375 226.628906 78.5 226.789062 79.847656 C 227.5 76.519531 228.011719 73.53125 228.328125 70.875 C 228.644531 68.222656 228.804688 66.894531 228.804688 66.894531 L 248.179688 68.324219 C 248.019531 68.878906 247.878906 69.414062 247.761719 69.925781 C 247.640625 70.4375 247.503906 70.933594 247.347656 71.410156 L 254.121094 71.886719 C 252.296875 78.78125 250.550781 84.84375 248.886719 90.074219 C 247.222656 95.296875 245.519531 99.972656 243.777344 104.09375 C 242.039062 108.210938 240.195312 112.050781 238.25 115.617188 C 236.308594 119.179688 234.195312 122.746094 231.898438 126.308594 C 229.601562 129.875 227.023438 133.757812 224.167969 137.957031 L 207.0625 130.824219 C 207.140625 130.59375 207.335938 130.316406 207.652344 129.992188 Z M 214.425781 106.230469 C 214.425781 106.230469 213.671875 108.132812 212.164062 111.929688 C 210.65625 115.734375 207.609375 120.6875 203.019531 126.789062 L 217.753906 132.964844 C 220.449219 128.925781 222.925781 125.183594 225.179688 121.734375 C 227.4375 118.289062 229.5 114.839844 231.359375 111.394531 C 233.222656 107.953125 234.984375 104.253906 236.648438 100.289062 C 238.3125 96.332031 239.957031 91.835938 241.578125 86.808594 C 243.207031 81.773438 244.890625 75.96875 246.632812 69.390625 L 229.875 68.199219 C 229.875 68.199219 229.753906 69.089844 229.519531 70.875 C 229.277344 72.660156 228.902344 74.859375 228.390625 77.476562 C 227.878906 80.089844 227.242188 82.761719 226.484375 85.492188 C 225.734375 88.226562 224.839844 90.542969 223.8125 92.445312 C 223.8125 92.445312 223.414062 91.394531 222.621094 89.296875 C 221.832031 87.195312 221.042969 84.367188 220.25 80.804688 C 219.457031 77.238281 219.058594 73.3125 219.058594 69.03125 L 200.640625 70.222656 C 200.640625 70.222656 200.894531 71.410156 201.410156 73.789062 C 201.925781 76.164062 202.742188 79.214844 203.851562 82.941406 C 204.957031 86.664062 206.386719 90.605469 208.128906 94.761719 C 209.867188 98.917969 211.96875 102.742188 214.425781 106.230469 Z M 214.425781 106.230469 " fill-opacity="1" fill-rule="nonzero"/></g></g></svg>